<svg id="visual" viewBox="0 0 900 600" width="900" height="600" xmlns="http://www.w3.org/2000/svg" xmlns:xlink="http://www.w3.org/1999/xlink" version="1.1"><rect x="0" y="0" width="900" height="600" fill="transparent"></rect><g transform="translate(455.9779527335809 315.11660132014)"><path d="M140.8 -174.8C171.5 -142.1 177.8 -87.3 193.6 -29.5C209.4 28.4 234.6 89.2 215.4 126.2C196.2 163.3 132.7 176.5 78.7 180.9C24.7 185.3 -19.7 180.7 -61.3 166.4C-102.8 152.1 -141.5 128.1 -176.2 90.7C-211 53.3 -241.9 2.6 -232.6 -39.4C-223.2 -81.3 -173.6 -114.6 -128.2 -144.7C-82.7 -174.9 -41.4 -201.9 6.9 -210.1C55.1 -218.3 110.1 -207.6 140.8 -174.8" fill="#BB004B"></path></g></svg>