<!--?xml version="1.0" standalone="no"?-->
              <svg id="sw-js-blob-svg" viewBox="0 0 100 100" xmlns="http://www.w3.org/2000/svg" version="1.1">
                    <defs> 
                        <linearGradient id="sw-gradient" x1="0" x2="1" y1="1" y2="0">
                            <stop id="stop1" stop-color="rgba(255, 211.314, 190.638, 1)" offset="0%"></stop>
                            <stop id="stop2" stop-color="rgba(241.871, 201.61, 185.056, 1)" offset="100%"></stop>
                        </linearGradient>
                    </defs>
                <path fill="url(#sw-gradient)" d="M26.8,-31.1C32.5,-27.2,33.3,-16.6,29.1,-9.7C25,-2.8,15.7,0.5,12.8,9C9.8,17.5,13.1,31.2,9.8,36.5C6.5,41.8,-3.2,38.8,-9.3,33.3C-15.4,27.8,-17.8,19.7,-16.7,13.6C-15.6,7.4,-11,3.1,-12.6,-4.7C-14.3,-12.6,-22.1,-24.1,-21,-28.8C-19.9,-33.6,-10,-31.5,0.3,-31.9C10.6,-32.2,21.1,-35,26.8,-31.1Z" width="100%" height="100%" transform="translate(50 50)" style="transition: all 0.3s ease 0s;" stroke-width="0" stroke="url(#sw-gradient)"></path>
              </svg>