<svg id="visual" viewBox="0 0 900 600" width="900" height="600" xmlns="http://www.w3.org/2000/svg" xmlns:xlink="http://www.w3.org/1999/xlink" version="1.1"><path d="M322 600L364.7 580C407.3 560 492.7 520 534.5 480C576.3 440 574.7 400 539.7 360C504.7 320 436.3 280 426 240C415.7 200 463.3 160 495 120C526.7 80 542.3 40 550.2 20L558 0L900 0L900 20C900 40 900 80 900 120C900 160 900 200 900 240C900 280 900 320 900 360C900 400 900 440 900 480C900 520 900 560 900 580L900 600Z" fill="#facfbd" stroke-linecap="round" stroke-linejoin="miter"></path></svg>