<svg id="visual" viewBox="0 0 900 600" width="900" height="600" xmlns="http://www.w3.org/2000/svg" xmlns:xlink="http://www.w3.org/1999/xlink" version="1.1"><path d="M438 600L472.2 580C506.3 560 574.7 520 608.2 480C641.7 440 640.3 400 612.3 360C584.3 320 529.7 280 521.3 240C513 200 551 160 576.2 120C601.3 80 613.7 40 619.8 20L626 0L900 0L900 20C900 40 900 80 900 120C900 160 900 200 900 240C900 280 900 320 900 360C900 400 900 440 900 480C900 520 900 560 900 580L900 600Z" fill="#facfbd" stroke-linecap="round" stroke-linejoin="miter"></path></svg>