<svg width="38" height="38" viewBox="0 0 38 38" fill="none" xmlns="http://www.w3.org/2000/svg">
<path d="M32.0625 10.6875H5.9375C5.28166 10.6875 4.75 11.2192 4.75 11.875V30.875C4.75 31.5308 5.28166 32.0625 5.9375 32.0625H32.0625C32.7183 32.0625 33.25 31.5308 33.25 30.875V11.875C33.25 11.2192 32.7183 10.6875 32.0625 10.6875Z" stroke="#6D737A" stroke-width="1.5" stroke-linecap="round" stroke-linejoin="round"/>
<path d="M24.9375 10.6875V8.3125C24.9375 7.68261 24.6873 7.07852 24.2419 6.63312C23.7965 6.18772 23.1924 5.9375 22.5625 5.9375H15.4375C14.8076 5.9375 14.2035 6.18772 13.7581 6.63312C13.3127 7.07852 13.0625 7.68261 13.0625 8.3125V10.6875" stroke="#6D737A" stroke-width="1.5" stroke-linecap="round" stroke-linejoin="round"/>
<path d="M33.25 18.7477C28.919 21.2525 24.0031 22.5685 19 22.5625C13.9959 22.5755 9.07825 21.259 4.75 18.7477" stroke="#6D737A" stroke-width="1.5" stroke-linecap="round" stroke-linejoin="round"/>
<path d="M17.2188 17.8125H20.7812" stroke="#6D737A" stroke-width="1.5" stroke-linecap="round" stroke-linejoin="round"/>
</svg>
