<svg width="86" height="86" viewBox="0 0 86 86" fill="none" xmlns="http://www.w3.org/2000/svg">
<g clip-path="url(#clip0_3_114)">
<path d="M43.0423 85.3521C66.6116 85.3521 85.7183 66.2454 85.7183 42.6761C85.7183 19.1067 66.6116 0 43.0423 0C19.4729 0 0.366211 19.1067 0.366211 42.6761C0.366211 66.2454 19.4729 85.3521 43.0423 85.3521Z" fill="#EC2412" fill-opacity="0.06"/>
<path d="M43.0423 79.5973C63.4333 79.5973 79.9635 63.0671 79.9635 42.676C79.9635 22.285 63.4333 5.75482 43.0423 5.75482C22.6512 5.75482 6.12103 22.285 6.12103 42.676C6.12103 63.0671 22.6512 79.5973 43.0423 79.5973Z" fill="white"/>
<path d="M71.5795 57.3661V57.3457C71.5795 57.2942 71.5795 57.2385 71.5795 57.1902C71.5795 57.1752 71.5795 57.1613 71.5795 57.1473C71.5795 57.0873 71.5698 57.0283 71.5612 56.9682V56.9339L71.5087 56.5586L71.3446 55.3695L71.0004 52.8969L70.7099 50.8006C70.5981 49.9973 70.3077 49.2293 69.8602 48.5529C69.4126 47.8766 68.8192 47.3091 68.1236 46.8922C68.1178 46.888 68.1117 46.8844 68.1053 46.8815C67.9092 46.7655 67.7062 46.6617 67.4974 46.5705L64.5379 45.5712V45.5647L63.3927 45.1776L61.0874 44.3917V44.3992L61.0262 44.3788L59.8639 43.0085L58.6523 43.9896L59.8639 43.0085V41.221C60.7035 40.123 61.1667 38.6915 61.4155 37.2536C62.135 37.2215 62.8008 36.3047 62.9413 35.1091C63.0485 34.2063 62.8223 33.3935 62.4052 32.9592V32.9313C62.4052 32.9206 62.4052 32.9088 62.4052 32.897C62.4148 32.8123 62.4234 32.7265 62.432 32.6407V32.6118C62.4395 32.5239 62.447 32.4359 62.4534 32.347C62.454 32.3412 62.454 32.3355 62.4534 32.3298C62.4599 32.2397 62.4663 32.1486 62.4706 32.0574V32.051C62.4706 31.9609 62.4781 31.8698 62.4802 31.7786C62.4802 31.7722 62.4802 31.7647 62.4802 31.7572C62.4802 31.6704 62.4802 31.5835 62.4802 31.4966V31.4656C62.4802 31.3808 62.4802 31.2972 62.4749 31.2125C62.4749 31.2007 62.4749 31.1889 62.4749 31.1771C62.4749 31.0945 62.4674 31.012 62.462 30.9305C62.462 30.9176 62.462 30.9048 62.462 30.8919C62.4556 30.8115 62.4491 30.731 62.4406 30.6517V30.6131C62.432 30.5338 62.4223 30.4555 62.4105 30.3772C62.4105 30.3654 62.4105 30.3536 62.4052 30.3407C62.3945 30.2628 62.3816 30.1856 62.3666 30.1091C62.3654 30.0987 62.3636 30.0883 62.3612 30.078C62.3462 29.9998 62.3301 29.9236 62.3119 29.8486L62.3055 29.8239C62.2876 29.7467 62.2672 29.6706 62.2443 29.5955C62.2447 29.5909 62.2447 29.5862 62.2443 29.5816C62.2218 29.5044 62.1961 29.4283 62.1693 29.3543C62.1269 29.2357 62.076 29.1203 62.017 29.009C61.9365 28.8564 61.8402 28.7126 61.7297 28.5801C61.6609 28.4987 61.5867 28.422 61.5077 28.3506C60.9651 27.8595 60.2789 27.6933 59.7813 27.6429L59.6913 27.6344H59.6645H59.5948H59.5776H59.5004H59.1702H59.1434H59.1262C59.1262 27.6215 59.1187 27.6075 59.1144 27.5947C59.1101 27.5818 59.1144 27.5807 59.109 27.5743C59.1015 27.5496 59.093 27.525 59.0844 27.5003C59.0844 27.495 59.0844 27.4896 59.079 27.4853C59.0737 27.481 59.0715 27.4628 59.0672 27.4521C59.0554 27.422 59.0436 27.392 59.0308 27.362L59.0254 27.3513C59.0232 27.3442 59.0203 27.3374 59.0168 27.3309L59.0104 27.317C58.9986 27.2902 58.9847 27.2634 58.9718 27.2355C58.9689 27.2314 58.9664 27.2271 58.9643 27.2226C58.9439 27.1829 58.9225 27.1433 58.8989 27.1047C58.8949 27.0992 58.8913 27.0935 58.8882 27.0875C58.8853 27.0835 58.8828 27.0791 58.8807 27.0746V27.0671L58.8206 26.976V26.9696C58.7938 26.931 58.7648 26.8934 58.7348 26.8559L58.7187 26.8355L58.7123 26.828C58.6516 26.755 58.5868 26.6856 58.5182 26.62L58.4828 26.5921C58.4453 26.5567 58.4067 26.5224 58.366 26.4849L58.3552 26.4763C58.3166 26.4441 58.277 26.413 58.2362 26.383L58.2105 26.3627C58.1665 26.3305 58.1204 26.2983 58.0732 26.2672L58.0486 26.2511L57.9145 26.1675L57.8867 26.1514C57.8352 26.1214 57.7794 26.0924 57.7269 26.0635L57.6915 26.0442C57.64 26.0185 57.5843 25.9916 57.5328 25.9659L57.5114 25.9563C57.4513 25.9284 57.3891 25.9016 57.3248 25.8748L57.2808 25.8565C57.2154 25.8297 57.1479 25.804 57.0782 25.7783C55.4698 25.1917 52.0064 25.0641 50.2779 28.5211C50.235 28.6058 50.1953 28.6905 50.1567 28.7774C50.1503 28.7913 50.1439 28.8042 50.1385 28.8181C50.101 28.9007 50.0667 28.9833 50.0313 29.0669C50.0248 29.083 50.0184 29.0991 50.013 29.1151C49.9787 29.1999 49.9466 29.2856 49.9165 29.3703C49.9165 29.3821 49.909 29.3929 49.9058 29.4036C49.8758 29.4883 49.8479 29.573 49.8211 29.6577L49.8125 29.6824C49.7861 29.7703 49.7603 29.8582 49.7353 29.9462L49.7225 29.9955C49.6989 30.0813 49.6763 30.1681 49.656 30.255C49.656 30.271 49.6485 30.2871 49.6442 30.3021C49.6238 30.3922 49.6034 30.4812 49.5852 30.5713V30.5874C49.568 30.6753 49.5509 30.7632 49.5359 30.8511C49.5359 30.864 49.5305 30.878 49.5284 30.8919C49.5134 30.9787 49.4994 31.0667 49.4876 31.1535C49.4876 31.1718 49.4823 31.1889 49.4801 31.2071C49.4673 31.294 49.4565 31.3808 49.4458 31.4677C49.4458 31.4816 49.4458 31.4956 49.4458 31.5095C49.4362 31.5964 49.4276 31.6832 49.419 31.769C49.419 31.7754 49.419 31.7808 49.419 31.7862C49.4115 31.8752 49.4051 31.9642 49.3986 32.0521V32.1003C49.3933 32.1861 49.389 32.2708 49.3858 32.3555C49.3858 32.3716 49.3858 32.3888 49.3858 32.4049C49.3858 32.4885 49.3804 32.5711 49.3783 32.6547C48.6534 32.808 48.188 33.876 48.3317 35.1027C48.4754 36.3293 49.1745 37.2622 49.9155 37.2472C50.1385 38.5393 50.5352 39.8206 51.2193 40.8671C51.2676 40.9411 51.3169 41.013 51.3684 41.0816L51.4274 41.1631L51.467 41.2146V43.0085L52.6787 43.9896L51.467 43.0085L50.3025 44.3831L50.2457 44.4013L49.241 44.7412L43.8497 46.5641C43.6473 46.6527 43.4503 46.7533 43.2599 46.8654C42.5536 47.28 41.9502 47.8491 41.4951 48.5301C41.04 49.211 40.7448 49.9862 40.6318 50.7974L39.9831 55.4714L39.8587 56.3721L39.7804 56.9307V56.965C39.7719 57.0251 39.7665 57.084 39.7622 57.1441C39.7622 57.158 39.7622 57.172 39.7622 57.1859C39.7622 57.2385 39.7622 57.2931 39.7622 57.3435V57.3661C39.7644 57.4915 39.7759 57.6165 39.7965 57.7403C39.8282 57.9362 39.8829 58.1276 39.9595 58.3107C40.155 58.7793 40.4847 59.1796 40.9071 59.4612C41.3295 59.7428 41.8258 59.8932 42.3335 59.8934H69.0328C69.6425 59.894 70.2324 59.6777 70.6972 59.2833C71.162 58.8888 71.4713 58.3419 71.5698 57.7403C71.5822 57.6159 71.5854 57.4909 71.5795 57.3661Z" fill="#EC2412" fill-opacity="0.06"/>
<path d="M17.5599 47.2214C16.7494 47.2214 15.9721 47.5433 15.399 48.1164C14.8259 48.6895 14.504 49.4668 14.504 50.2773V54.6854V56.8299C14.5035 57.2661 14.5972 57.6973 14.7785 58.0941C14.8128 58.1713 14.8514 58.2464 14.8921 58.3204C14.9229 58.3761 14.9561 58.4308 14.9918 58.4844C15.1085 58.6665 15.2444 58.8354 15.3972 58.9884C15.6807 59.2723 16.0175 59.4975 16.3883 59.6509C16.7591 59.8044 17.1565 59.8831 17.5578 59.8826C18.3683 59.8826 19.1456 59.5607 19.7187 58.9876C20.2918 58.4145 20.6137 57.6372 20.6137 56.8267V50.2773C20.6137 49.4672 20.2921 48.6902 19.7194 48.1172C19.1468 47.5442 18.37 47.2219 17.5599 47.2214Z" fill="#EC2412" fill-opacity="0.06"/>
<path d="M26.138 41.1813C25.3276 41.1813 24.5503 41.5033 23.9772 42.0764C23.4041 42.6495 23.0821 43.4268 23.0821 44.2373V54.6854V56.8299C23.0817 57.2662 23.1753 57.6974 23.3566 58.0941C23.3909 58.1713 23.4295 58.2464 23.4703 58.3204C23.501 58.3761 23.5342 58.4308 23.57 58.4844C23.6866 58.6665 23.8225 58.8354 23.9753 58.9884C24.2588 59.2723 24.5957 59.4975 24.9664 59.6509C25.3372 59.8044 25.7346 59.8831 26.1359 59.8827C26.9464 59.8827 27.7237 59.5607 28.2968 58.9876C28.8699 58.4145 29.1918 57.6372 29.1918 56.8267V44.2373C29.1918 43.4272 28.8702 42.6502 28.2975 42.0772C27.7249 41.5041 26.9482 41.1819 26.138 41.1813Z" fill="#EC2412" fill-opacity="0.06"/>
<path d="M41.2108 37.2772C41.4307 37.279 41.6465 37.2187 41.8337 37.1034C42.0209 36.9881 42.1718 36.8224 42.2691 36.6253C42.2939 36.5756 42.3154 36.5244 42.3335 36.4719C42.3421 36.4462 42.3496 36.4205 42.3571 36.3937C42.3635 36.3679 42.3699 36.3422 42.3742 36.3165C42.3742 36.2907 42.3839 36.2661 42.3871 36.2403V36.2328C42.3871 36.2082 42.3871 36.1835 42.3946 36.1588V36.1492C42.3946 36.1256 42.3946 36.102 42.3946 36.0774V36.0645C42.3946 36.042 42.3946 36.0194 42.3946 35.9969C42.3941 35.9912 42.3941 35.9855 42.3946 35.9798C42.3946 35.9583 42.3892 35.9369 42.386 35.9154V35.8951C42.3829 35.8748 42.3786 35.8548 42.3732 35.835C42.3732 35.8264 42.3732 35.8189 42.3732 35.8114C42.3732 35.8039 42.3624 35.7728 42.356 35.7546C42.3541 35.7455 42.3516 35.7365 42.3485 35.7278C42.3421 35.7096 42.3356 35.6924 42.3281 35.6742C42.3252 35.6647 42.3216 35.6553 42.3174 35.6463C42.3104 35.6288 42.3025 35.6116 42.2938 35.5948L42.2809 35.5659C42.2724 35.5487 42.2627 35.5326 42.2531 35.5155C42.2434 35.4983 42.2423 35.4962 42.2359 35.4865C42.2295 35.4769 42.2145 35.4522 42.2027 35.4351C42.1909 35.4179 42.1919 35.4179 42.1855 35.4104C42.1673 35.3847 42.148 35.36 42.1276 35.3353L41.8252 34.9751L40.0721 32.8884L35.6329 27.6043C35.5799 27.542 35.5206 27.4852 35.456 27.4349C35.2888 27.3005 35.0882 27.2141 34.8756 27.1852C34.6631 27.1563 34.4467 27.1859 34.2497 27.2709L34.224 27.2805L34.2143 27.2859C34.0573 27.3589 33.9182 27.4654 33.8068 27.5979L27.3121 35.3289C27.2918 35.3536 27.2725 35.3782 27.2542 35.404C27.2479 35.4118 27.2422 35.42 27.2371 35.4286L27.2028 35.4801C27.1974 35.4898 27.1921 35.4983 27.1878 35.508C27.1835 35.5176 27.1674 35.5423 27.1588 35.5595C27.1539 35.5684 27.1496 35.5777 27.1459 35.5873C27.1374 35.6045 27.1288 35.6227 27.1213 35.6399C27.1182 35.649 27.1146 35.6579 27.1106 35.6667L27.0902 35.7214C27.0882 35.7301 27.0857 35.7387 27.0827 35.7471L27.0763 35.7707L27.0666 35.805C27.0666 35.8125 27.0666 35.82 27.0612 35.8286C27.0559 35.8372 27.0527 35.8683 27.0494 35.8886C27.0489 35.8954 27.0489 35.9022 27.0494 35.909C27.0494 35.9305 27.043 35.9519 27.0409 35.9733C27.0403 35.979 27.0403 35.9848 27.0409 35.9905C27.0409 36.013 27.0409 36.0355 27.0409 36.0581V36.072C27.0409 36.0956 27.0409 36.1192 27.0409 36.1428C27.0414 36.146 27.0414 36.1492 27.0409 36.1524C27.0409 36.1767 27.043 36.2014 27.0473 36.2264C27.0473 36.2264 27.0473 36.2264 27.0473 36.2339C27.0473 36.2596 27.0548 36.2843 27.0591 36.31C27.0645 36.3358 27.0709 36.3615 27.0773 36.3872C27.1519 36.6679 27.3256 36.912 27.5663 37.0746H27.5727C27.6642 37.1348 27.7639 37.1818 27.8687 37.214C27.9836 37.2492 28.1033 37.267 28.2236 37.2665H31.6623V54.6854V56.8299C31.6619 57.2662 31.7555 57.6973 31.9368 58.0941C31.9711 58.1713 32.0097 58.2464 32.0505 58.3204C32.0812 58.3761 32.1145 58.4308 32.1502 58.4844C32.2668 58.6665 32.4027 58.8354 32.5555 58.9884C32.8391 59.2723 33.1759 59.4975 33.5467 59.6509C33.9174 59.8044 34.3149 59.8831 34.7161 59.8827C35.5266 59.8827 36.3039 59.5607 36.877 58.9876C37.4501 58.4145 37.7721 57.6372 37.7721 56.8267V37.2772H41.2108Z" fill="#EC2412" fill-opacity="0.06"/>
<path d="M69.0082 57.7435H42.3088C41.9413 57.7431 41.5781 57.6641 41.2437 57.5116C40.9093 57.3591 40.6114 57.1367 40.3701 56.8595C40.1288 56.5822 39.9497 56.2565 39.8449 55.9043C39.74 55.552 39.7118 55.1814 39.7622 54.8173L40.62 48.6507C40.7484 47.7285 41.1116 46.8548 41.675 46.1135C42.2383 45.3722 42.9827 44.7881 43.8368 44.4174L46.7952 43.417L47.9404 43.031L50.2264 42.2568L51.4488 41.8461H59.8607L62.7236 42.8112L63.0046 42.9066L67.4781 44.4163C68.3324 44.7867 69.077 45.3707 69.6404 46.1121C70.2038 46.8534 70.5669 47.7273 70.6948 48.6496L70.9854 50.7459L71.3296 53.2185L71.5505 54.8162C71.601 55.18 71.5731 55.5504 71.4685 55.9025C71.364 56.2546 71.1853 56.5802 70.9445 56.8575C70.7036 57.1348 70.4062 57.3574 70.0723 57.5102C69.7383 57.663 69.3755 57.7425 69.0082 57.7435Z" fill="#EC2412"/>
<path d="M40.6168 49.4924C40.7448 48.5701 41.1079 47.6962 41.6712 46.9549C42.2346 46.2135 42.9793 45.6295 43.8336 45.2592L51.4467 42.6857H59.8596L67.4727 45.2592C68.327 45.6296 69.0716 46.2136 69.6349 46.955C70.1983 47.6963 70.5614 48.5702 70.6895 49.4924L71.5355 55.5904C71.5779 55.335 71.5812 55.0747 71.5452 54.8184L70.6873 48.6507C70.559 47.7285 70.1957 46.8548 69.6324 46.1135C69.0691 45.3722 68.3246 44.7881 67.4706 44.4174L59.8575 41.844H51.451L43.8379 44.4174C42.9837 44.788 42.2392 45.3721 41.6759 46.1134C41.1126 46.8548 40.7493 47.7285 40.6211 48.6507L39.7633 54.8184C39.7278 55.0747 39.731 55.335 39.7729 55.5904L40.6168 49.4924Z" fill="#EC2412"/>
<path d="M71.4733 54.2254C71.3145 54.756 70.9888 55.2213 70.5445 55.552C70.1002 55.8827 69.561 56.0613 69.0071 56.0611H42.3078C41.7539 56.0613 41.2147 55.8827 40.7704 55.552C40.3261 55.2213 40.0004 54.756 39.8416 54.2254L39.759 54.8184C39.7088 55.1824 39.7371 55.5529 39.842 55.905C39.947 56.2571 40.1261 56.5827 40.3674 56.8598C40.6086 57.137 40.9064 57.3592 41.2408 57.5116C41.5751 57.6641 41.9382 57.7431 42.3056 57.7435H69.005C69.3724 57.7431 69.7355 57.6641 70.0698 57.5116C70.4042 57.3592 70.702 57.137 70.9432 56.8598C71.1845 56.5827 71.3636 56.2571 71.4686 55.905C71.5735 55.5529 71.6018 55.1824 71.5516 54.8184L71.4733 54.2254Z" fill="#EC2412" fill-opacity="0.5"/>
<path d="M61.1324 42.3619L59.8639 40.8607L55.6574 44.2684L51.4509 40.8639L50.1824 42.3651C50.0532 42.6463 49.9875 42.9526 49.9901 43.2621C49.9927 43.5716 50.0635 43.8767 50.1974 44.1558L54.153 52.3779L55.6542 55.5035L61.1142 44.1558C61.2494 43.8766 61.3211 43.571 61.3243 43.2609C61.3274 42.9507 61.2619 42.6437 61.1324 42.3619Z" fill="#E6E7E8"/>
<path d="M57.1618 52.3747L56.4413 46.3464H55.6575H54.8736L54.1531 52.3747L55.6575 55.5003L57.1618 52.3747Z" fill="#EC2412" fill-opacity="0.5"/>
<path d="M51.4509 36.8687V39.6019L51.452 40.8639L55.6574 44.2716L59.8639 40.8639V36.8687H51.4509Z" fill="#F7CB15"/>
<path d="M55.6574 44.2716L52.3013 48.5231L50.2007 44.1547C50.0656 43.8753 49.994 43.5695 49.9911 43.2591C49.9881 42.9488 50.0538 42.6417 50.1835 42.3597L51.451 40.8639L55.6574 44.2716Z" fill="#D1D3D4"/>
<path d="M55.6574 44.2716L59.019 48.5231L61.1195 44.1547C61.2546 43.8753 61.3262 43.5695 61.3291 43.2591C61.3321 42.9488 61.2664 42.6417 61.1367 42.3597L59.8639 40.8639L55.6574 44.2716Z" fill="#D1D3D4"/>
<path d="M54.2286 45.1944L54.4978 44.9252C54.8046 44.6184 55.2208 44.446 55.6548 44.446C56.0888 44.446 56.505 44.6184 56.8118 44.9252L57.081 45.1944C57.2332 45.3466 57.3187 45.5531 57.3187 45.7683C57.3187 45.9836 57.2332 46.1901 57.081 46.3423L56.2288 47.1945C56.0765 47.3467 55.8701 47.4323 55.6548 47.4323C55.4395 47.4323 55.2331 47.3467 55.0808 47.1945L54.2286 46.3423C54.0764 46.1901 53.9909 45.9836 53.9909 45.7683C53.9909 45.5531 54.0764 45.3466 54.2286 45.1944Z" fill="#EC2412"/>
<path d="M56.9688 45.0768L56.0789 45.9668C55.9671 46.0785 55.8155 46.1413 55.6575 46.1413C55.4994 46.1413 55.3479 46.0785 55.2361 45.9668L54.3461 45.0768L54.078 45.3449C53.9663 45.4567 53.9036 45.6083 53.9036 45.7663C53.9036 45.9243 53.9663 46.0759 54.078 46.1877L55.2361 47.3457C55.3479 47.4575 55.4994 47.5202 55.6575 47.5202C55.8155 47.5202 55.9671 47.4575 56.0789 47.3457L57.2369 46.1877C57.3486 46.0759 57.4114 45.9243 57.4114 45.7663C57.4114 45.6083 57.3486 45.4567 57.2369 45.3449L56.9688 45.0768Z" fill="#EC2412"/>
<path d="M50.1975 44.9943C49.9986 44.5795 49.9406 44.1111 50.0323 43.6604C50 43.5021 49.9864 43.3405 49.9916 43.179L47.9436 43.8706L46.7952 44.2587C46.6558 44.6008 46.5893 45.2238 46.9314 46.3185C47.5747 48.3934 47.8321 48.9542 47.8321 48.9542L49.6549 48.7515L48.4754 50.3288C49.2173 51.4468 50.0322 52.5146 50.9148 53.5252C52.5554 55.3674 55.6531 56.3431 55.6531 56.3431L54.152 53.2153L50.1975 44.9943Z" fill="#EC2412" fill-opacity="0.5"/>
<path d="M55.6571 55.5L55.4203 55.0071H55.1031V56.115H56.211V55.0071H55.8949L55.6571 55.5Z" fill="#EC2412" fill-opacity="0.5"/>
<path d="M55.6585 55.5025C55.6585 55.5025 52.5596 54.5256 50.9202 52.6835C50.0374 51.6728 49.2221 50.605 48.4797 49.4871L49.6592 47.9108L47.8363 48.1135C47.8363 48.1135 47.5833 47.5527 46.9356 45.4779C46.5936 44.3799 46.6601 43.7623 46.7995 43.4181L47.9446 43.031L50.2264 42.2579L50.1781 42.3651C50.0491 42.6462 49.9836 42.9524 49.9864 43.2617C49.9892 43.571 50.0601 43.8759 50.1942 44.1547L54.1498 52.3768L55.6585 55.5025Z" fill="#EC2412"/>
<path d="M64.5197 44.2534L63.3745 43.8663L61.3243 43.1736C61.3299 43.3344 61.3166 43.4952 61.2847 43.6529C61.3778 44.1042 61.3202 44.5736 61.1206 44.9889L57.1639 53.21L55.6628 56.3377C55.6628 56.3377 58.7616 55.362 60.4011 53.5188C61.2843 52.5084 62.0996 51.4405 62.8416 50.3224L61.6621 48.7461L63.4849 48.9488C63.4849 48.9488 63.738 48.388 64.3856 46.3132C64.7255 45.2152 64.6591 44.5943 64.5197 44.2534Z" fill="#EC2412" fill-opacity="0.5"/>
<path d="M55.6596 55.496C55.6596 55.496 58.7584 54.5203 60.3979 52.6781C61.2811 51.6677 62.0964 50.5999 62.8384 49.4817L61.6589 47.9044L63.4818 48.1082C63.4818 48.1082 63.7348 47.5463 64.3825 45.4725C64.7245 44.3745 64.658 43.7569 64.5186 43.4116L63.3735 43.0246L61.0874 42.2472L61.1357 42.3544C61.2647 42.6357 61.3302 42.942 61.3274 43.2515C61.3246 43.561 61.2537 43.8661 61.1196 44.1451L57.164 52.3683L55.6596 55.496Z" fill="#EC2412"/>
<path d="M61.6867 31.5696C61.6867 35.1305 61.0434 41.0473 55.6574 41.0473C50.2714 41.0473 49.6292 35.1305 49.6292 31.5696C49.6292 28.0086 50.1899 25.1199 55.6574 25.1199C61.1249 25.1199 61.6867 28.0075 61.6867 31.5696Z" fill="#FFF335"/>
<path d="M55.6574 39.3649C50.681 39.3649 49.7535 34.3103 49.642 30.7321C49.6324 31.0055 49.6292 31.2854 49.6292 31.5696C49.6292 35.1305 50.2725 41.0473 55.6574 41.0473C61.0423 41.0473 61.6867 35.1305 61.6867 31.5696C61.6867 31.2854 61.6867 31.0055 61.6739 30.7321C61.5613 34.3124 60.6338 39.3649 55.6574 39.3649Z" fill="#FEDE3A"/>
<path d="M49.9788 35.1022C50.7493 35.0119 51.2533 33.9089 51.1045 32.6384C50.9557 31.368 50.2105 30.4112 49.44 30.5015C48.6695 30.5917 48.1655 31.6948 48.3143 32.9652C48.4631 34.2357 49.2083 35.1924 49.9788 35.1022Z" fill="#FFF335"/>
<path d="M62.9387 32.9613C63.0875 31.6908 62.5835 30.5878 61.813 30.4975C61.0425 30.4073 60.2972 31.3641 60.1484 32.6345C59.9997 33.905 60.5036 35.008 61.2742 35.0983C62.0447 35.1885 62.7899 34.2318 62.9387 32.9613Z" fill="#FFF335"/>
<path d="M49.9241 32.9903C49.8491 32.4002 49.8578 31.8024 49.9498 31.2146C49.9166 31.2125 49.8833 31.2125 49.8501 31.2146C49.2389 31.2865 48.8304 32.08 48.9365 32.986C49.0427 33.8921 49.6238 34.5698 50.235 34.499L50.2726 34.4915C50.0987 34.0063 49.9818 33.5025 49.9241 32.9903Z" fill="#FEDE3A"/>
<path d="M61.3908 32.9903C61.4664 32.4002 61.4577 31.8023 61.3651 31.2146C61.3983 31.2125 61.4316 31.2125 61.4648 31.2146C62.076 31.2865 62.4856 32.08 62.3795 32.986C62.3416 33.3535 62.2106 33.7052 61.9988 34.0079C61.9102 34.1337 61.8015 34.2442 61.6771 34.3349C61.5839 34.3993 61.3994 34.5161 61.2825 34.4936C61.2934 34.4161 61.2815 34.3371 61.2482 34.2663C61.2397 34.247 61.23 34.2288 61.2214 34.2095C61.1464 34.0368 61.2525 33.8117 61.289 33.6401C61.3312 33.4264 61.3651 33.2098 61.3908 32.9903Z" fill="#FEDE3A"/>
<path d="M58.7091 27.8048C58.7091 27.8048 57.4106 29.8089 55.1589 29.9955C52.9071 30.1821 51.3191 30.3172 50.6918 31.4291C50.0645 32.541 50.7079 34.633 50.2082 34.633C49.7086 34.633 48.543 29.8379 50.2715 26.3766C52 22.9153 55.4677 23.0526 57.0718 23.6337C58.6759 24.2149 59.2013 25.1456 59.2013 26.0999C59.1924 26.702 59.0224 27.2907 58.7091 27.8048Z" fill="#EC2412"/>
<path d="M58.0539 24.1184C58.2603 24.4656 58.3668 24.863 58.3617 25.2668C58.351 25.866 58.1807 26.4516 57.8684 26.9631C57.8684 26.9631 56.5721 28.9693 54.3203 29.1548C52.0686 29.3403 50.4795 29.4765 49.8533 30.5874C49.4662 31.2736 49.5627 32.333 49.5756 33.0439C49.7621 34.009 50.0302 34.633 50.2103 34.633C50.71 34.633 50.0677 32.54 50.6939 31.4291C51.3201 30.3182 52.9071 30.181 55.1588 29.9955C57.4106 29.81 58.7069 27.8048 58.7069 27.8048C59.0197 27.2931 59.1904 26.7071 59.2013 26.1075C59.2034 25.3815 58.901 24.6738 58.0539 24.1184Z" fill="#EC2412" fill-opacity="0.5"/>
<path d="M59.1262 25.4877C59.1262 25.4877 61.4626 25.2325 62.18 27.2033C63.1279 29.8121 61.7211 34.5022 61.2986 34.5022C60.8761 34.5022 61.438 32.2022 60.8011 30.1456C60.1641 28.089 58.6233 27.9292 58.6233 27.9292L59.1262 25.4877Z" fill="#EC2412"/>
<path d="M61.6385 29.3082C61.0016 27.2516 59.4597 27.0918 59.4597 27.0918L59.7878 25.4984C59.5667 25.4735 59.3437 25.4699 59.1219 25.4877L58.619 27.9335C58.619 27.9335 60.1599 28.0922 60.7968 30.1499C61.4337 32.2076 60.8708 34.5065 61.2943 34.5065C61.4423 34.5065 61.7136 33.9243 61.9602 33.0568C61.9484 32.2365 62.0738 30.7161 61.6385 29.3082Z" fill="#EC2412" fill-opacity="0.5"/>
<path d="M50.4408 26.8066C52.1683 23.3507 55.637 23.4772 57.2411 24.0637C58.2426 24.4293 58.8238 24.928 59.1187 25.4834C58.916 24.7618 58.322 24.0991 57.0728 23.6434C55.4644 23.0569 52.001 22.9293 50.2725 26.3862C48.7842 29.3618 49.4415 33.3302 49.9723 34.3757C49.4973 32.9249 49.1102 29.4658 50.4408 26.8066Z" fill="#EC2412"/>
<path d="M62.1757 27.2076C61.4584 25.2325 59.1219 25.492 59.1219 25.492L59.0372 25.9027C59.5852 25.8887 61.3222 25.9766 61.9238 27.6333C62.6926 29.7499 61.9109 33.238 61.363 34.4775C61.8487 34.0508 63.0775 29.6888 62.1757 27.2076Z" fill="#EC2412"/>
<path d="M55.6575 35.7728C55.1557 35.7728 54.7342 35.5005 54.6184 35.1295C54.5966 35.1955 54.5853 35.2647 54.5852 35.3343C54.5852 35.8018 55.0656 36.1803 55.6575 36.1803C56.2494 36.1803 56.7297 35.8018 56.7297 35.3343C56.7296 35.2647 56.7184 35.1955 56.6965 35.1295C56.5807 35.5005 56.1604 35.7728 55.6575 35.7728Z" fill="#FEDE3A"/>
<path d="M55.6575 44.2716L52.0118 47.9173L50.2018 44.1536C50.0667 43.8742 49.9951 43.5684 49.9922 43.2581C49.9892 42.9477 50.0549 42.6406 50.1846 42.3587L51.452 40.8629L55.6575 44.2716Z" fill="white"/>
<path d="M55.6574 44.2716L59.3031 47.9173L61.112 44.1526C61.2471 43.8731 61.3187 43.5673 61.3216 43.257C61.3246 42.9467 61.2589 42.6395 61.1292 42.3576L59.8639 40.8639L55.6574 44.2716Z" fill="white"/>
<path d="M20.6159 48.1328C20.6159 46.445 19.2477 45.0768 17.5599 45.0768C15.8722 45.0768 14.504 46.445 14.504 48.1328V54.6875C14.504 56.3753 15.8722 57.7435 17.5599 57.7435C19.2477 57.7435 20.6159 56.3753 20.6159 54.6875V48.1328Z" fill="#EC2412" fill-opacity="0.06"/>
<path d="M17.5599 55.599C16.7494 55.599 15.9721 55.277 15.399 54.7039C14.8259 54.1308 14.504 53.3535 14.504 52.543V54.6875C14.504 55.498 14.8259 56.2753 15.399 56.8484C15.9721 57.4215 16.7494 57.7435 17.5599 57.7435C18.3704 57.7435 19.1477 57.4215 19.7208 56.8484C20.2939 56.2753 20.6159 55.498 20.6159 54.6875V52.5409C20.6161 52.9424 20.5373 53.34 20.3839 53.711C20.2304 54.082 20.0054 54.4191 19.7216 54.7031C19.4378 54.9871 19.1008 55.2124 18.7299 55.3661C18.359 55.5198 17.9614 55.599 17.5599 55.599Z" fill="#D1D3D4"/>
<path d="M29.194 42.0928C29.194 40.405 27.8258 39.0368 26.138 39.0368C24.4503 39.0368 23.0821 40.405 23.0821 42.0928V54.6875C23.0821 56.3753 24.4503 57.7435 26.138 57.7435C27.8258 57.7435 29.194 56.3753 29.194 54.6875V42.0928Z" fill="#EC2412" fill-opacity="0.06"/>
<path d="M26.138 55.599C25.3276 55.599 24.5503 55.277 23.9772 54.7039C23.4041 54.1308 23.0821 53.3535 23.0821 52.543V54.6875C23.0821 55.498 23.4041 56.2753 23.9772 56.8484C24.5503 57.4215 25.3276 57.7435 26.138 57.7435C26.5394 57.7435 26.9367 57.6644 27.3075 57.5109C27.6783 57.3573 28.0152 57.1322 28.2989 56.8484C28.5827 56.5646 28.8078 56.2278 28.9614 55.857C29.1149 55.4862 29.194 55.0888 29.194 54.6875V52.5409C29.1943 52.9424 29.1154 53.34 28.962 53.711C28.8085 54.082 28.5835 54.4191 28.2997 54.7031C28.0159 54.9871 27.6789 55.2124 27.308 55.3661C26.9371 55.5198 26.5395 55.599 26.138 55.599Z" fill="#D1D3D4"/>
<path d="M37.7721 34.9783C37.7721 33.2905 36.4039 31.9223 34.7162 31.9223C33.0284 31.9223 31.6602 33.2905 31.6602 34.9783V54.6886C31.6602 56.3764 33.0284 57.7446 34.7162 57.7446C36.4039 57.7446 37.7721 56.3764 37.7721 54.6886V34.9783Z" fill="#EC2412"/>
<path d="M34.7162 55.599C33.9057 55.599 33.1284 55.277 32.5553 54.7039C31.9822 54.1308 31.6602 53.3535 31.6602 52.543V54.6875C31.6602 55.498 31.9822 56.2753 32.5553 56.8484C33.1284 57.4215 33.9057 57.7435 34.7162 57.7435C35.5267 57.7435 36.3039 57.4215 36.877 56.8484C37.4501 56.2753 37.7721 55.498 37.7721 54.6875V52.5409C37.7724 52.9424 37.6936 53.34 37.5401 53.711C37.3867 54.082 37.1616 54.4191 36.8778 54.7031C36.594 54.9871 36.257 55.2124 35.8861 55.3661C35.5152 55.5198 35.1177 55.599 34.7162 55.599Z" fill="#EC2412"/>
<path d="M37.7721 34.633H31.6602V37.2611H37.7721V34.633Z" fill="#EC2412"/>
<path d="M41.2109 35.1327H28.2215C27.9958 35.1324 27.7749 35.0678 27.5847 34.9464C27.3945 34.825 27.2429 34.6519 27.1476 34.4473C27.0524 34.2428 27.0175 34.0153 27.047 33.7916C27.0765 33.5679 27.1693 33.3572 27.3143 33.1844L33.809 25.4534C33.9202 25.3208 34.0591 25.2142 34.2159 25.1411C34.3727 25.068 34.5437 25.0301 34.7167 25.0301C34.8897 25.0301 35.0606 25.068 35.2174 25.1411C35.3743 25.2142 35.5132 25.3208 35.6244 25.4534L42.1191 33.1844C42.2642 33.3573 42.3569 33.568 42.3864 33.7918C42.4159 34.0156 42.3809 34.2432 42.2855 34.4478C42.1902 34.6524 42.0384 34.8255 41.848 34.9469C41.6576 35.0682 41.4366 35.1326 41.2109 35.1327Z" fill="#EC2412"/>
<path d="M27.3143 34.2566L33.809 26.5256C33.9202 26.3931 34.0591 26.2865 34.2159 26.2134C34.3727 26.1402 34.5436 26.1024 34.7167 26.1024C34.8897 26.1024 35.0606 26.1402 35.2174 26.2134C35.3742 26.2865 35.5131 26.3931 35.6243 26.5256L42.119 34.2566C42.1768 34.3258 42.2272 34.401 42.2691 34.4807C42.3756 34.2742 42.4182 34.0406 42.3914 33.8097C42.3647 33.5788 42.2699 33.3612 42.119 33.1844L35.6243 25.4534C35.5131 25.3208 35.3742 25.2142 35.2174 25.1411C35.0606 25.068 34.8897 25.0301 34.7167 25.0301C34.5436 25.0301 34.3727 25.068 34.2159 25.1411C34.0591 25.2142 33.9202 25.3208 33.809 25.4534L27.3143 33.1844C27.1635 33.3612 27.0686 33.5788 27.0419 33.8097C27.0152 34.0406 27.0577 34.2742 27.1642 34.4807C27.2058 34.4007 27.2561 34.3256 27.3143 34.2566Z" fill="#EC2412"/>
<path d="M41.8167 32.8241C41.6334 32.9328 41.4239 32.9895 41.2109 32.9882H28.2215C28.0087 32.9895 27.7996 32.9328 27.6167 32.8241L27.3143 33.1844C27.1693 33.3572 27.0765 33.5679 27.047 33.7916C27.0175 34.0153 27.0524 34.2428 27.1476 34.4473C27.2429 34.6519 27.3945 34.825 27.5847 34.9464C27.7749 35.0678 27.9958 35.1324 28.2215 35.1327H41.2109C41.4366 35.1326 41.6576 35.0682 41.848 34.9469C42.0384 34.8255 42.1902 34.6524 42.2855 34.4478C42.3809 34.2432 42.4159 34.0156 42.3864 33.7918C42.3569 33.568 42.2642 33.3573 42.1191 33.1844L41.8167 32.8241Z" fill="#EC2412"/>
</g>
<defs>
<clipPath id="clip0_3_114">
<rect width="85.3521" height="85.3521" fill="white" transform="translate(0.366211)"/>
</clipPath>
</defs>
</svg>
