<svg width="30" height="30" viewBox="0 0 30 30" fill="none" xmlns="http://www.w3.org/2000/svg">
<path d="M10.3125 13.125C10.0639 13.125 9.8254 13.2238 9.64959 13.3996C9.47377 13.5754 9.375 13.8139 9.375 14.0625C9.375 14.3111 9.47377 14.5496 9.64959 14.7254C9.8254 14.9012 10.0639 15 10.3125 15H19.6875C19.9361 15 20.1746 14.9012 20.3504 14.7254C20.5262 14.5496 20.625 14.3111 20.625 14.0625C20.625 13.8139 20.5262 13.5754 20.3504 13.3996C20.1746 13.2238 19.9361 13.125 19.6875 13.125H10.3125ZM9.375 17.8125C9.375 17.5639 9.47377 17.3254 9.64959 17.1496C9.8254 16.9738 10.0639 16.875 10.3125 16.875H19.6875C19.9361 16.875 20.1746 16.9738 20.3504 17.1496C20.5262 17.3254 20.625 17.5639 20.625 17.8125C20.625 18.0611 20.5262 18.2996 20.3504 18.4754C20.1746 18.6512 19.9361 18.75 19.6875 18.75H10.3125C10.0639 18.75 9.8254 18.6512 9.64959 18.4754C9.47377 18.2996 9.375 18.0611 9.375 17.8125ZM9.375 21.5625C9.375 21.3139 9.47377 21.0754 9.64959 20.8996C9.8254 20.7238 10.0639 20.625 10.3125 20.625H14.0625C14.3111 20.625 14.5496 20.7238 14.7254 20.8996C14.9012 21.0754 15 21.3139 15 21.5625C15 21.8111 14.9012 22.0496 14.7254 22.2254C14.5496 22.4012 14.3111 22.5 14.0625 22.5H10.3125C10.0639 22.5 9.8254 22.4012 9.64959 22.2254C9.47377 22.0496 9.375 21.8111 9.375 21.5625Z" fill="black"/>
<path d="M17.8125 0H7.5C6.50544 0 5.55161 0.395088 4.84835 1.09835C4.14509 1.80161 3.75 2.75544 3.75 3.75V26.25C3.75 27.2446 4.14509 28.1984 4.84835 28.9016C5.55161 29.6049 6.50544 30 7.5 30H22.5C23.4946 30 24.4484 29.6049 25.1516 28.9016C25.8549 28.1984 26.25 27.2446 26.25 26.25V8.4375L17.8125 0ZM17.8125 1.875V5.625C17.8125 6.37092 18.1088 7.08629 18.6363 7.61374C19.1637 8.14118 19.8791 8.4375 20.625 8.4375H24.375V26.25C24.375 26.7473 24.1775 27.2242 23.8258 27.5758C23.4742 27.9275 22.9973 28.125 22.5 28.125H7.5C7.00272 28.125 6.52581 27.9275 6.17417 27.5758C5.82254 27.2242 5.625 26.7473 5.625 26.25V3.75C5.625 3.25272 5.82254 2.77581 6.17417 2.42417C6.52581 2.07254 7.00272 1.875 7.5 1.875H17.8125Z" fill="black"/>
</svg>
