<svg width="38" height="38" viewBox="0 0 38 38" fill="none" xmlns="http://www.w3.org/2000/svg">
<path d="M24.9375 22.5625C30.1842 22.5625 34.4375 18.3092 34.4375 13.0625C34.4375 7.81579 30.1842 3.5625 24.9375 3.5625C19.6908 3.5625 15.4375 7.81579 15.4375 13.0625C15.4375 18.3092 19.6908 22.5625 24.9375 22.5625Z" stroke="#6D737A" stroke-width="1.5" stroke-linecap="round" stroke-linejoin="round"/>
<path d="M31.6617 19.7867L18.2133 6.33826" stroke="#6D737A" stroke-width="1.5" stroke-linecap="round" stroke-linejoin="round"/>
<path d="M14.8438 23.1562L13.0625 24.9375" stroke="#6D737A" stroke-width="1.5" stroke-linecap="round" stroke-linejoin="round"/>
<path d="M15.5563 14.532L4.17111 30.0586C3.99997 30.2864 3.91764 30.5688 3.93949 30.8529C3.96134 31.137 4.08589 31.4034 4.28986 31.6024L6.39768 33.7102C6.59664 33.9141 6.86307 34.0387 7.14717 34.0605C7.43127 34.0824 7.71361 34.0001 7.94143 33.8289L23.468 22.4438" stroke="#6D737A" stroke-width="1.5" stroke-linecap="round" stroke-linejoin="round"/>
</svg>
