<svg width="86" height="86" viewBox="0 0 86 86" fill="none" xmlns="http://www.w3.org/2000/svg">
<g clip-path="url(#clip0_3_15)">
<path d="M44.0986 85.3521C67.6679 85.3521 86.7747 66.2454 86.7747 42.6761C86.7747 19.1067 67.6679 0 44.0986 0C20.5293 0 1.42255 19.1067 1.42255 42.6761C1.42255 66.2454 20.5293 85.3521 44.0986 85.3521Z" fill="#EC2412" fill-opacity="0.06"/>
<path d="M44.0986 79.5973C64.4896 79.5973 81.0198 63.0671 81.0198 42.676C81.0198 22.285 64.4896 5.75482 44.0986 5.75482C23.7076 5.75482 7.17737 22.285 7.17737 42.676C7.17737 63.0671 23.7076 79.5973 44.0986 79.5973Z" fill="white"/>
<path d="M73.3714 46.5255C73.3714 46.4923 73.3714 46.459 73.3714 46.4258C73.3714 46.3593 73.3714 46.2939 73.3714 46.2285C73.3021 44.7584 72.7021 43.3633 71.6827 42.3017C70.6633 41.2402 69.2937 40.5842 67.8276 40.4554C66.3615 40.3266 64.8984 40.7337 63.7095 41.6012C62.5207 42.4687 61.6866 43.7379 61.362 45.1734H51.3728C51.6703 44.7055 51.8539 44.1745 51.909 43.6229C52.0226 42.6578 51.7824 41.7754 51.3364 41.3143C51.3369 41.3082 51.3369 41.3021 51.3364 41.2961C51.3364 41.266 51.3439 41.236 51.3471 41.206C51.3503 41.176 51.3471 41.161 51.3546 41.1384L51.3643 41.0462L51.3707 40.9797C51.3707 40.9476 51.3771 40.9165 51.3793 40.8843L51.3857 40.8211C51.3857 40.7857 51.3911 40.7503 51.3932 40.7138C51.3954 40.6774 51.3932 40.6774 51.3932 40.6591C51.3932 40.6163 51.3996 40.5734 51.4018 40.5294C51.4023 40.5198 51.4023 40.5101 51.4018 40.5004V40.4533L56.851 35.004C57.8177 35.7255 58.9777 36.1422 60.1825 36.2007C60.2898 36.206 60.3906 36.2093 60.4946 36.2093C61.2937 36.2103 62.0851 36.0534 62.8234 35.7475C63.5616 35.4417 64.2322 34.993 64.7965 34.4272C64.8758 34.3478 64.952 34.2663 65.026 34.1837C65.0495 34.158 65.0721 34.1301 65.0957 34.1033C65.145 34.0465 65.1932 33.9897 65.2404 33.9318L65.3165 33.832C65.3584 33.7784 65.3991 33.7248 65.4388 33.6701C65.4645 33.6348 65.4892 33.5983 65.5138 33.5629C65.5503 33.5082 65.5867 33.4557 65.6211 33.3999L65.6908 33.2927C65.724 33.2369 65.7572 33.1855 65.7883 33.1244C65.8098 33.0879 65.8312 33.0504 65.8516 33.0171C65.8827 32.9582 65.9138 32.8981 65.9427 32.8381C65.961 32.8027 65.9792 32.7673 65.9953 32.7308C66.0275 32.6633 66.0575 32.5947 66.0864 32.526C66.0993 32.4971 66.1122 32.4692 66.124 32.4403C66.1636 32.3416 66.2022 32.243 66.2312 32.1432C66.2655 32.0446 66.2966 31.9449 66.3266 31.8451C66.3352 31.8151 66.3427 31.784 66.3502 31.754C66.3706 31.6832 66.3888 31.6114 66.406 31.5395C66.4145 31.5031 66.422 31.4656 66.4306 31.4323C66.4446 31.3658 66.4585 31.3004 66.4703 31.234C66.4778 31.1954 66.4842 31.1557 66.4896 31.1171C66.5003 31.0517 66.51 30.9873 66.5186 30.9219C66.5186 30.8833 66.5282 30.8436 66.5325 30.804C66.54 30.7375 66.5454 30.6721 66.5507 30.6056C66.5507 30.567 66.5571 30.5295 66.5593 30.4909C66.5593 30.4212 66.5657 30.3515 66.5668 30.2818V30.1746C66.5668 30.0941 66.5668 30.0137 66.5668 29.9333C66.5668 29.9097 66.5668 29.8861 66.5668 29.8625C66.4948 28.2993 65.8232 26.8239 64.6915 25.7432C63.5598 24.6624 62.0552 24.0593 60.4903 24.0593C58.9254 24.0593 57.4207 24.6624 56.289 25.7432C55.1574 26.8239 54.4857 28.2993 54.4138 29.8625C54.4138 29.8861 54.4138 29.9108 54.4138 29.9344C54.4138 30.0148 54.4138 30.0941 54.4138 30.1746C54.4138 30.2099 54.4138 30.2443 54.4138 30.2818C54.4138 30.3504 54.4138 30.4201 54.4224 30.4898C54.4224 30.5284 54.4277 30.567 54.4309 30.6045C54.4309 30.671 54.4417 30.7364 54.4481 30.8018C54.4481 30.8415 54.4577 30.8823 54.4631 30.9219C54.4717 30.9863 54.4813 31.0506 54.491 31.116C54.4974 31.1546 54.5038 31.1943 54.5113 31.234C54.5231 31.2994 54.5371 31.3648 54.551 31.4302C54.5585 31.4677 54.5671 31.5052 54.5757 31.5374C54.5918 31.6082 54.6111 31.6789 54.6304 31.7519L54.655 31.8441C54.684 31.9427 54.7151 32.0414 54.7494 32.1389V32.1443C54.7848 32.244 54.8223 32.3427 54.8631 32.4413C54.8748 32.4703 54.8877 32.4992 54.9006 32.5282C54.9295 32.5957 54.9596 32.6644 54.9907 32.7319L55.0443 32.8391C55.0732 32.8981 55.1032 32.9582 55.1354 33.0171L55.1976 33.1297C55.2298 33.1855 55.2619 33.2369 55.2962 33.297C55.3188 33.3345 55.3424 33.371 55.3659 33.4042C55.3756 33.4182 55.3831 33.4321 55.3927 33.446L55.0057 33.8331L51.1616 37.6772C51.1562 37.66 51.1509 37.6439 51.1466 37.6279C51.1423 37.6118 51.1369 37.5968 51.1316 37.5817C51.1176 37.5378 51.1026 37.4949 51.0865 37.452C51.0198 37.2646 50.9332 37.0849 50.8281 36.9159C50.7708 36.8244 50.7078 36.7367 50.6394 36.6532C50.5933 36.5974 50.5472 36.5459 50.4989 36.4934C50.4507 36.4409 50.4185 36.413 50.3767 36.3755C50.3177 36.3218 50.2566 36.2736 50.1944 36.2264C50.1322 36.1792 50.0572 36.1267 49.9853 36.0827C49.8967 36.0288 49.8055 35.9795 49.7119 35.9348C49.3372 35.7614 48.9359 35.6527 48.5249 35.6131L48.4284 35.6045H48.3995H48.3244H48.3072H48.2236H47.9727H47.9223H47.8687H47.8397H47.8344H47.8194H47.8108L47.7979 35.5616L47.7915 35.5412L47.7657 35.4608L47.7593 35.4447C47.7432 35.3997 47.7261 35.3557 47.7078 35.3118V35.301L47.6982 35.2796L47.6918 35.2646C47.6789 35.2356 47.6639 35.2067 47.6489 35.1767L47.6424 35.1638C47.6199 35.1209 47.5963 35.078 47.5717 35.0362C47.5717 35.0308 47.5642 35.0244 47.5599 35.018L47.5513 35.0051V34.9965C47.5299 34.9633 47.5084 34.9311 47.4859 34.8989L47.4805 34.8914C47.4516 34.8507 47.4215 34.8099 47.3883 34.7703L47.3712 34.7478L47.3636 34.7392C47.2986 34.6609 47.2292 34.5865 47.1556 34.5161L47.132 34.4936C47.0913 34.4561 47.0505 34.4186 47.0066 34.3864L46.9948 34.3768C46.954 34.3424 46.9112 34.3092 46.8672 34.277L46.8393 34.2556C46.7921 34.2202 46.7428 34.1859 46.6924 34.1484L46.6656 34.1312C46.6195 34.1012 46.5712 34.0712 46.5219 34.0422L46.493 34.024C46.4372 33.9918 46.3857 33.9607 46.3214 33.9296L46.2828 33.9092L46.1123 33.8256L46.0887 33.8149C46.0244 33.7849 45.9579 33.7559 45.8904 33.727L45.8421 33.7077C45.7713 33.6787 45.6995 33.6508 45.6277 33.624C45.4904 33.5736 45.3392 33.5275 45.1794 33.4846V29.32C45.8599 29.1989 46.5145 28.9621 47.1149 28.6198C47.2221 28.5608 47.3197 28.4986 47.4194 28.4343C47.6943 28.2562 47.9543 28.0561 48.1968 27.836C48.3413 27.7054 48.4791 27.5676 48.6096 27.4231C48.675 27.3513 48.7394 27.2773 48.8015 27.2022C49.703 26.1146 50.1961 24.7462 50.1955 23.3335C50.1955 23.3174 50.1955 23.3014 50.1955 23.2853C50.1955 23.2016 50.1955 23.118 50.1891 23.0354C50.1115 21.4764 49.4376 20.0068 48.3067 18.9307C47.1759 17.8547 45.6746 17.2546 44.1136 17.2546C42.5526 17.2546 41.0514 17.8547 39.9205 18.9307C38.7896 20.0068 38.1157 21.4764 38.0382 23.0354C38.0382 23.1148 38.0382 23.1941 38.0317 23.2745C38.0317 23.2938 38.0317 23.3131 38.0317 23.3324C38.0311 24.7451 38.5242 26.1136 39.4257 27.2012C39.4879 27.2762 39.5522 27.3502 39.6176 27.4221C39.7482 27.5665 39.886 27.7043 40.0304 27.8349C40.2729 28.0551 40.5329 28.2552 40.8078 28.4332C40.9076 28.4975 41.0083 28.5597 41.1124 28.6187C41.7061 28.9591 42.3532 29.1963 43.0263 29.32V33.297C41.3568 33.4332 39.4772 34.2502 38.3223 36.561C38.2762 36.651 38.2333 36.7432 38.1915 36.8365L38.1722 36.8794C38.1325 36.9684 38.095 37.0574 38.0586 37.1475C38.0521 37.1646 38.0457 37.1818 38.0382 37.199C38.0024 37.2897 37.9667 37.3809 37.931 37.4724L37.9192 37.5078C37.887 37.5989 37.857 37.69 37.828 37.7812C37.828 37.7898 37.8227 37.7983 37.8205 37.8069C37.7905 37.9013 37.7637 37.9956 37.7369 38.09C37.7369 38.1082 37.7272 38.1254 37.7229 38.1425C37.7069 38.2015 37.6918 38.2594 37.6768 38.3184L33.1819 33.8267L32.7959 33.4407L32.8216 33.3999C32.8452 33.3624 32.8688 33.3259 32.8913 33.2927C32.9256 33.2369 32.9578 33.1855 32.99 33.1244L33.0522 33.0171C33.0843 32.9582 33.1143 32.8981 33.1444 32.8381C33.1615 32.8027 33.1798 32.7673 33.1958 32.7308C33.228 32.6622 33.258 32.5936 33.2881 32.525C33.2998 32.4971 33.3127 32.4692 33.3245 32.4403C33.4045 32.2449 33.4743 32.0456 33.5336 31.843C33.5422 31.813 33.5497 31.783 33.5583 31.7529C33.5776 31.6811 33.5969 31.6103 33.6129 31.5385C33.6215 31.502 33.629 31.4656 33.6376 31.4313C33.6516 31.3658 33.6655 31.2994 33.6773 31.2329C33.6848 31.1943 33.6912 31.1557 33.6977 31.116C33.7073 31.0517 33.717 30.9863 33.7255 30.9209C33.7309 30.8812 33.7363 30.8426 33.7405 30.8029C33.747 30.7364 33.7534 30.671 33.7588 30.6045C33.7588 30.5659 33.7641 30.5284 33.7663 30.4898C33.7663 30.4201 33.7727 30.3504 33.7749 30.2807C33.7749 30.2464 33.7749 30.2121 33.7749 30.1735C33.7749 30.0931 33.7749 30.0126 33.7749 29.9333C33.7749 29.9086 33.7749 29.885 33.7749 29.8615C33.7029 28.2982 33.0313 26.8229 31.8996 25.7421C30.7679 24.6613 29.2632 24.0582 27.6983 24.0582C26.1335 24.0582 24.6288 24.6613 23.4971 25.7421C22.3654 26.8229 21.6938 28.2982 21.6218 29.8615C21.6218 29.885 21.6218 29.9086 21.6218 29.9312C21.6218 30.0126 21.6218 30.0931 21.6218 30.1735V30.2807C21.6218 30.3504 21.6218 30.4201 21.6293 30.4898C21.6293 30.5284 21.6293 30.5659 21.6379 30.6045C21.6379 30.671 21.6486 30.7364 21.6561 30.8029C21.6561 30.8426 21.6647 30.8812 21.6701 30.9209C21.6787 30.9863 21.6883 31.0517 21.699 31.116C21.7055 31.1557 21.7108 31.1943 21.7183 31.2329C21.7301 31.2994 21.7441 31.3648 21.758 31.4313C21.7666 31.4677 21.7741 31.5052 21.7827 31.5385C21.7998 31.6092 21.8181 31.6811 21.8384 31.7529C21.8459 31.783 21.8534 31.814 21.862 31.8441C21.892 31.9438 21.9231 32.0435 21.9575 32.1422C21.9918 32.2419 22.0304 32.3405 22.07 32.4392C22.0818 32.4681 22.0947 32.496 22.1076 32.525C22.1365 32.5936 22.1665 32.6622 22.1987 32.7298C22.2148 32.7651 22.233 32.8005 22.2513 32.837C22.2813 32.896 22.3113 32.956 22.3424 33.015C22.3628 33.0525 22.3842 33.09 22.4057 33.1276C22.4368 33.1833 22.47 33.2348 22.5032 33.2938C22.5365 33.3527 22.5493 33.3699 22.574 33.4064C22.6083 33.461 22.6448 33.5136 22.6812 33.5683C22.7059 33.6047 22.7306 33.6412 22.7574 33.6755C22.796 33.7291 22.8356 33.7827 22.8775 33.8353L22.9557 33.9371C23.0008 33.994 23.049 34.0497 23.0973 34.1055L23.1691 34.1891C23.242 34.2695 23.316 34.3489 23.3932 34.4261C23.3932 34.4261 23.3932 34.4261 23.3986 34.4314C24.4299 35.4671 25.8003 36.0957 27.258 36.2019C28.7157 36.3081 30.1628 35.8846 31.3333 35.0094L36.7858 40.4586L37.3294 41.0012C36.5606 41.1781 36.0695 42.3201 36.2228 43.6272C36.2784 44.1787 36.462 44.7096 36.759 45.1777H26.8352C26.5106 43.7422 25.6765 42.473 24.4877 41.6055C23.2988 40.738 21.8357 40.3309 20.3697 40.4597C18.9036 40.5885 17.5339 41.2445 16.5145 42.306C15.4951 43.3675 14.8952 44.7627 14.8258 46.2328C14.8258 46.2714 14.8258 46.311 14.8258 46.3496C14.8258 46.4097 14.8258 46.4697 14.8258 46.5298C14.8258 47.3287 14.9832 48.1198 15.289 48.8579C15.5947 49.596 16.0429 50.2666 16.6079 50.8315C17.1728 51.3963 17.8435 51.8444 18.5817 52.15C19.3198 52.4556 20.1109 52.6129 20.9099 52.6127C22.3857 52.6125 23.811 52.0757 24.9203 51.1023C26.0296 50.129 26.7472 48.7854 26.9392 47.3222H38.2323C38.4602 48.1797 38.8136 48.9988 39.2809 49.753C39.3549 49.8688 39.4332 49.9814 39.5136 50.0918L39.5855 50.1862V52.1045L40.8818 53.1521L39.5822 52.0991L38.332 53.5746L31.4095 55.9121C30.4937 56.3109 29.6955 56.9379 29.091 57.733C28.4865 58.5282 28.096 59.4651 27.9568 60.4542L27.0378 67.0711V67.1044C27.0314 67.158 27.026 67.2116 27.0218 67.2641C27.0218 67.2791 27.0218 67.2941 27.0218 67.3092C27.0218 67.366 27.0218 67.4164 27.0218 67.4775V67.4979C27.0241 67.6326 27.0363 67.767 27.0582 67.9C27.07 67.974 27.085 68.048 27.1032 68.1209C27.2528 68.7184 27.5979 69.2487 28.0837 69.6274C28.5695 70.0061 29.168 70.2114 29.7839 70.2107H58.423C59.0389 70.2114 59.6374 70.0061 60.1232 69.6274C60.6089 69.2487 60.9541 68.7184 61.1036 68.1209C61.1219 68.048 61.1369 67.974 61.1487 67.9C61.1706 67.767 61.1827 67.6326 61.1851 67.4979V67.4775C61.1851 67.4217 61.1851 67.3703 61.1851 67.3092C61.1851 67.2941 61.1851 67.2791 61.1851 67.2641C61.1851 67.2116 61.1755 67.1569 61.169 67.1044V67.0711L60.2501 60.4542C60.1097 59.4655 59.7188 58.5291 59.1145 57.7341C58.5102 56.9391 57.7125 56.3119 56.7974 55.9121L53.6224 54.8398C53.6224 54.8398 53.6224 54.8398 53.6224 54.8334L52.3936 54.4184L49.9403 53.5896V53.5981L49.8738 53.5756L48.6236 52.1002L47.3154 53.1521L48.615 52.0991V50.1819C49.0119 49.65 49.3365 49.0676 49.58 48.4502C49.6068 48.3848 49.6326 48.3194 49.6572 48.2529C49.7076 48.121 49.7559 47.987 49.8009 47.8508C49.8234 47.7833 49.8459 47.7157 49.8663 47.6471C49.9006 47.5399 49.9328 47.4326 49.9639 47.319H61.2612C61.3698 48.1544 61.6518 48.9579 62.089 49.6779C62.1394 49.7616 62.1963 49.8441 62.2467 49.9246C62.6842 50.5725 63.2423 51.1302 63.8904 51.5673C63.9709 51.622 64.0534 51.6745 64.1371 51.726C65.0874 52.3035 66.1785 52.6081 67.2906 52.6063C68.6815 52.6076 70.0306 52.1302 71.111 51.2542C71.2054 51.178 71.2976 51.1008 71.3866 51.0193C72.0124 50.45 72.5122 49.7561 72.854 48.9822C73.1958 48.2083 73.372 47.3715 73.3714 46.5255Z" fill="#EC2412" fill-opacity="0.06"/>
<path d="M67.2906 43.0288H20.9066V45.1734H67.2906V43.0288Z" fill="white"/>
<path d="M67.2916 44.1011H20.9066V45.1734H67.2916V44.1011Z" fill="#E6E7E8"/>
<path d="M45.1709 20.7772H43.0263V44.1075H45.1709V20.7772Z" fill="white"/>
<path d="M44.8588 43.3462L43.3426 44.8635L31.9123 33.4396L26.9413 28.4718L28.4564 26.9556L33.1862 31.6822L44.8588 43.3462Z" fill="white"/>
<path d="M27.649 27.7652L28.4575 26.9556V26.9545L26.9413 28.4718L43.3426 44.8635L44.0503 44.1558L27.649 27.7652Z" fill="#E6E7E8"/>
<path d="M61.2559 28.4718L56.286 33.4417L44.8631 44.8656L43.3459 43.3495L59.7397 26.9556L61.2559 28.4718Z" fill="white"/>
<path d="M60.5125 27.7267L44.1186 44.1205L44.8631 44.8651L61.257 28.4712L60.5125 27.7267Z" fill="#E6E7E8"/>
<path d="M51.939 43.0288C51.9452 43.2272 51.9366 43.4258 51.9132 43.6229C51.8575 44.1744 51.6739 44.7052 51.3771 45.1734H36.7622C36.4652 44.7053 36.2816 44.1744 36.226 43.6229C36.2027 43.4258 36.1941 43.2272 36.2003 43.0288H51.939Z" fill="#D1D3D4"/>
<path d="M58.423 68.0662H29.7743C29.3798 68.0661 28.9899 67.9814 28.6309 67.818C28.2719 67.6545 27.9522 67.4159 27.6931 67.1184C27.4341 66.8209 27.2419 66.4713 27.1294 66.0932C27.0169 65.7151 26.9868 65.3173 27.0411 64.9266L27.96 58.3096C28.0976 57.32 28.4874 56.3823 29.0921 55.5869C29.6968 54.7914 30.4959 54.1649 31.4127 53.7675L34.593 52.6953L35.8207 52.2792L38.2741 51.4504L39.5844 51.0075H48.6107L56.7835 53.7675C57.7003 54.1649 58.4994 54.7914 59.1041 55.5869C59.7087 56.3823 60.0986 57.32 60.2362 58.3096L61.1551 64.9266C61.2093 65.3172 61.1792 65.7149 61.0668 66.0929C60.9544 66.471 60.7623 66.8205 60.5034 67.118C60.2445 67.4155 59.9248 67.6541 59.566 67.8176C59.2071 67.9812 58.8174 68.0659 58.423 68.0662Z" fill="#EC2412"/>
<path d="M27.96 59.2125C28.0976 58.2228 28.4874 57.2852 29.0921 56.4897C29.6968 55.6943 30.4959 55.0678 31.4127 54.6704L39.5855 51.9104H48.6118L56.7846 54.6704C57.7013 55.0678 58.5005 55.6943 59.1051 56.4897C59.7098 57.2852 60.0997 58.2228 60.2372 59.2125L61.1454 65.7533C61.1904 65.4791 61.194 65.1997 61.1562 64.9244L60.2372 58.3075C60.0997 57.3178 59.7098 56.3802 59.1051 55.5847C58.5005 54.7893 57.7013 54.1628 56.7846 53.7654L48.6118 51.0075H39.5855L31.4127 53.7675C30.4959 54.1649 29.6968 54.7914 29.0921 55.5869C28.4874 56.3823 28.0976 57.32 27.96 58.3096L27.0411 64.9266C27.0032 65.2019 27.0068 65.4812 27.0518 65.7554L27.96 59.2125Z" fill="#EC2412"/>
<path d="M61.0672 64.2907C60.8982 64.861 60.5495 65.3614 60.073 65.7173C59.5965 66.0732 59.0177 66.2656 58.423 66.2658H29.7743C29.1802 66.266 28.6019 66.0743 28.1255 65.7194C27.6491 65.3645 27.3 64.8653 27.1301 64.2961L27.0411 64.932C26.9868 65.3227 27.0169 65.7205 27.1294 66.0986C27.2419 66.4767 27.4341 66.8262 27.6931 67.1238C27.9522 67.4213 28.2719 67.6598 28.6309 67.8233C28.9899 67.9868 29.3798 68.0715 29.7743 68.0715H58.423C58.8174 68.0715 59.2073 67.9868 59.5663 67.8233C59.9253 67.6598 60.2451 67.4213 60.5041 67.1238C60.7631 66.8262 60.9553 66.4767 61.0678 66.0986C61.1803 65.7205 61.2104 65.3227 61.1562 64.932L61.0672 64.2907Z" fill="#EC2412"/>
<path d="M49.9735 51.5619L48.6117 49.9535L44.0986 53.6131L39.5854 49.9567L38.2237 51.5651C38.0848 51.8667 38.0143 52.1952 38.0172 52.5272C38.0202 52.8592 38.0966 53.1865 38.2408 53.4855L42.4902 62.3049L44.0986 65.6589L49.9564 53.4834C50.1008 53.1842 50.1772 52.8568 50.1802 52.5246C50.1832 52.1923 50.1126 51.8636 49.9735 51.5619Z" fill="#E6E7E8"/>
<path d="M45.7124 62.3049L44.9403 55.8381H44.0986H43.2569L42.4849 62.3049L44.0986 65.6589L45.7124 62.3049Z" fill="#EC2412"/>
<path d="M39.5854 45.6687V48.6003V49.9546L44.0986 53.611L48.6118 49.9546V45.6687H39.5854Z" fill="#F7CB15"/>
<path d="M44.0986 53.6131L40.4979 58.1756L38.2462 53.4877C38.1006 53.1874 38.0234 52.8585 38.02 52.5248C38.0167 52.1911 38.0873 51.8608 38.2269 51.5576L39.5876 49.9492L44.0986 53.6131Z" fill="#D1D3D4"/>
<path d="M44.0986 53.6131L47.6993 58.1756L49.951 53.4877C50.0966 53.1874 50.1738 52.8585 50.1772 52.5248C50.1805 52.1911 50.1099 51.8608 49.9703 51.5576L48.6096 49.9492L44.0986 53.6131Z" fill="#D1D3D4"/>
<path d="M42.4476 54.7184L43.1004 54.0656C43.232 53.9345 43.3881 53.8307 43.5599 53.76C43.7317 53.6893 43.9156 53.6532 44.1014 53.6536C44.2871 53.654 44.4709 53.691 44.6424 53.7625C44.8138 53.8339 44.9695 53.9385 45.1005 54.0701L45.7503 54.7199C45.8155 54.7851 45.8672 54.8625 45.9025 54.9477C45.9378 55.033 45.956 55.1243 45.956 55.2165C45.956 55.3087 45.9378 55.4001 45.9025 55.4853C45.8672 55.5705 45.8155 55.6479 45.7503 55.7131L44.5963 56.8671C44.4646 56.9988 44.2859 57.0728 44.0997 57.0728C43.9134 57.0728 43.7348 56.9988 43.6031 56.8671L42.4476 55.7116C42.3158 55.5799 42.2418 55.4013 42.2418 55.215C42.2418 55.0287 42.3158 54.8501 42.4476 54.7184Z" fill="#EC2412"/>
<path d="M45.5054 54.4709L44.5511 55.4253C44.4307 55.5444 44.2681 55.6113 44.0986 55.6113C43.9292 55.6113 43.7666 55.5444 43.6461 55.4253L42.6918 54.4709L42.4034 54.7583C42.2842 54.8788 42.2173 55.0414 42.2173 55.2108C42.2173 55.3803 42.2842 55.5429 42.4034 55.6633L43.6461 56.9061C43.7666 57.0252 43.9292 57.0921 44.0986 57.0921C44.2681 57.0921 44.4307 57.0252 44.5511 56.9061L45.7939 55.6633C45.913 55.5429 45.9799 55.3803 45.9799 55.2108C45.9799 55.0414 45.913 54.8788 45.7939 54.7583L45.5054 54.4709Z" fill="#EC2412"/>
<path d="M38.2408 54.3862C38.0265 53.9414 37.9643 53.4384 38.0639 52.9548C38.0296 52.7851 38.0145 52.6121 38.0189 52.439L35.8218 53.1842L34.594 53.5992C34.4439 53.9659 34.3721 54.6318 34.7399 55.8102C35.4347 58.0362 35.7049 58.6377 35.7049 58.6377L37.6607 58.4233L36.3965 60.1153C37.1925 61.3155 38.0668 62.4617 39.0139 63.5466C40.7746 65.5152 44.0986 66.5628 44.0986 66.5628L42.4902 63.2077L38.2408 54.3862Z" fill="#EC2412"/>
<path d="M44.0982 65.6586L43.8431 65.1292H43.5035V66.3175H44.6928V65.1292H44.3532L44.0982 65.6586Z" fill="#EC2412"/>
<path d="M44.0986 65.6611C44.0986 65.6611 40.7746 64.6135 39.0139 62.6373C38.067 61.5523 37.1927 60.4061 36.3965 59.2061L37.665 57.5151L35.7092 57.7296C35.7092 57.7296 35.4379 57.128 34.7442 54.902C34.3764 53.7225 34.4482 53.0577 34.5973 52.6921L35.8261 52.276L38.2794 51.4472L38.228 51.5598C38.0891 51.8613 38.0186 52.1899 38.0215 52.5219C38.0245 52.8539 38.1009 53.1811 38.2451 53.4802L42.4902 62.3049L44.0986 65.6611Z" fill="#EC2412"/>
<path d="M53.6074 53.5917L52.3786 53.1757L50.1783 52.4337C50.1833 52.6059 50.1689 52.7782 50.1354 52.9473C50.2355 53.4316 50.1733 53.9354 49.9585 54.3809L45.7145 63.2024L44.0986 66.5575C44.0986 66.5575 47.4226 65.5099 49.1833 63.5337C50.1302 62.4487 51.0045 61.3025 51.8007 60.1025L50.5375 58.4104L52.4933 58.6249C52.4933 58.6249 52.7636 58.0234 53.4584 55.7973C53.8283 54.6243 53.7565 53.9573 53.6074 53.5917Z" fill="#EC2412"/>
<path d="M44.0986 65.6546C44.0986 65.6546 47.4226 64.607 49.1833 62.6309C50.1305 61.5461 51.0048 60.3999 51.8007 59.1996L50.5375 57.5087L52.4933 57.7231C52.4933 57.7231 52.7636 57.1205 53.4584 54.8945C53.8262 53.715 53.7543 53.0513 53.6053 52.6846L52.3765 52.2696L49.9231 51.4407L49.9746 51.5533C50.1137 51.855 50.1842 52.1838 50.1813 52.516C50.1783 52.8482 50.1019 53.1756 49.9574 53.4748L45.7145 62.2985L44.0986 65.6546Z" fill="#EC2412"/>
<path d="M50.5676 39.9825C50.5676 43.8041 49.8749 50.1519 44.0986 50.1519C38.3223 50.1519 37.6296 43.8041 37.6296 39.9825C37.6296 36.161 38.2322 33.0621 44.0986 33.0621C49.9649 33.0621 50.5676 36.1599 50.5676 39.9825Z" fill="#FFF005"/>
<path d="M44.0986 48.3462C38.7587 48.3462 37.7637 42.9227 37.6436 39.084C37.6339 39.3778 37.6296 39.678 37.6296 39.9825C37.6296 43.8041 38.3223 50.1519 44.0986 50.1519C49.8749 50.1519 50.5676 43.8041 50.5676 39.9825C50.5676 39.678 50.5676 39.3778 50.5536 39.084C50.4335 42.9227 49.4385 48.3462 44.0986 48.3462Z" fill="#DFBF1A"/>
<path d="M38.0055 43.7733C38.8319 43.6765 39.3724 42.4928 39.2127 41.1294C39.053 39.766 38.2537 38.7393 37.4273 38.836C36.6009 38.9328 36.0604 40.1165 36.2201 41.4799C36.3798 42.8433 37.1791 43.8701 38.0055 43.7733Z" fill="#FFF005"/>
<path d="M51.9112 41.4765C52.0708 40.1131 51.5304 38.9294 50.704 38.8326C49.8776 38.7359 49.0782 39.7626 48.9185 41.126C48.7589 42.4894 49.2993 43.6731 50.1257 43.7699C50.9521 43.8667 51.7515 42.8399 51.9112 41.4765Z" fill="#FFF005"/>
<path d="M37.947 41.5073C37.8664 40.874 37.8754 40.2326 37.9738 39.6019C37.9381 39.5997 37.9023 39.5997 37.8666 39.6019C37.2114 39.6791 36.7718 40.5304 36.8855 41.503C36.9991 42.4755 37.6243 43.2025 38.2794 43.1253C38.2934 43.1253 38.3062 43.12 38.3202 43.1178C38.1336 42.5973 38.0084 42.0568 37.947 41.5073Z" fill="#DFBF1A"/>
<path d="M50.2502 41.5073C50.3308 40.874 50.3217 40.2326 50.2234 39.6019C50.2591 39.5997 50.2949 39.5997 50.3306 39.6019C50.9857 39.6791 51.4254 40.5304 51.3117 41.503C51.2711 41.8969 51.1309 42.2741 50.9042 42.5988C50.8077 42.7345 50.6892 42.853 50.5536 42.9495C50.4539 43.0192 50.2566 43.1446 50.1301 43.12C50.1417 43.0367 50.1291 42.9518 50.0936 42.8755C50.085 42.8562 50.0732 42.8358 50.0647 42.8154C49.9842 42.631 50.0979 42.3865 50.1365 42.2042C50.1848 41.9769 50.2223 41.7421 50.2502 41.5073Z" fill="#DFBF1A"/>
<path d="M47.3733 35.9433C47.3733 35.9433 45.9794 38.0954 43.5657 38.2937C41.152 38.4921 39.4461 38.6401 38.7737 39.8313C38.1014 41.0226 38.7909 43.269 38.2548 43.269C37.7186 43.269 36.4684 38.1222 38.3223 34.4164C40.1763 30.7107 43.8981 30.8447 45.6191 31.4741C47.3401 32.1036 47.903 33.0954 47.903 34.1226C47.8914 34.7658 47.7086 35.3943 47.3733 35.9433Z" fill="#EC2412"/>
<path d="M46.672 31.9877C46.8935 32.3601 47.0078 32.7865 47.0023 33.2198C46.9911 33.8637 46.8082 34.4929 46.4726 35.0426C46.4726 35.0426 45.0786 37.1946 42.665 37.393C40.2513 37.5914 38.5454 37.7393 37.873 38.9317C37.4581 39.6673 37.561 40.8039 37.576 41.5663C37.7755 42.5988 38.0628 43.2712 38.2569 43.2712C38.793 43.2712 38.1025 41.0258 38.7759 39.8335C39.4493 38.6411 41.1488 38.4942 43.5625 38.2937C45.9761 38.0932 47.3701 35.9433 47.3701 35.9433C47.7057 35.3936 47.8885 34.7644 47.8998 34.1205C47.903 33.3474 47.5781 32.5839 46.672 31.9877Z" fill="#EC2412"/>
<path d="M47.8161 33.4546C47.8161 33.4546 50.322 33.1812 51.0919 35.301C52.1095 38.0996 50.5997 43.1285 50.1462 43.1285C49.6926 43.1285 50.2963 40.6623 49.61 38.4535C48.9238 36.2446 47.2725 36.0763 47.2725 36.0763L47.8161 33.4546Z" fill="#EC2412"/>
<path d="M50.515 37.5571C49.832 35.3493 48.1786 35.1788 48.1786 35.1788L48.5303 33.4685C48.2931 33.4416 48.054 33.4377 47.8161 33.4567L47.28 36.0816C47.28 36.0816 48.9334 36.2521 49.6175 38.4588C50.3016 40.6655 49.6969 43.1339 50.1537 43.1339C50.3134 43.1339 50.604 42.5088 50.8689 41.578C50.8539 40.6988 50.9836 39.0668 50.515 37.5571Z" fill="#EC2412"/>
<path d="M38.5025 34.8678C40.3564 31.1589 44.0782 31.2961 45.7992 31.9245C46.8715 32.318 47.4966 32.852 47.8129 33.4482C47.5985 32.6729 46.9551 31.9631 45.6191 31.4741C43.897 30.8447 40.1763 30.7085 38.3223 34.4164C36.7257 37.6085 37.4302 41.8665 38.0007 42.9881C37.4892 41.4376 37.0731 37.7254 38.5025 34.8678Z" fill="#EC2412"/>
<path d="M51.0919 35.3032C50.3177 33.1833 47.8161 33.4546 47.8161 33.4546L47.725 33.8964C48.3126 33.8803 50.1762 33.9757 50.8217 35.7525C51.6473 38.0235 50.8078 41.7668 50.2202 43.0953C50.7466 42.645 52.0591 37.9645 51.0919 35.3032Z" fill="#EC2412"/>
<path d="M44.0986 44.4925C43.5625 44.4925 43.1078 44.1997 42.9834 43.8051C42.9603 43.8765 42.9484 43.951 42.9481 44.026C42.9481 44.5268 43.4627 44.9332 44.0986 44.9332C44.7344 44.9332 45.2491 44.5268 45.2491 44.026C45.2488 43.951 45.2369 43.8765 45.2138 43.8051C45.0894 44.1997 44.6347 44.4925 44.0986 44.4925Z" fill="#DFBF1A"/>
<path d="M44.0986 53.6131L40.1859 57.5269L38.244 53.4855C38.0985 53.1852 38.0212 52.8564 38.0179 52.5227C38.0146 52.189 38.0852 51.8586 38.2247 51.5555L39.5854 49.9471L44.0986 53.6131Z" fill="white"/>
<path d="M44.0986 53.6131L48.0124 57.5269L49.9532 53.4877C50.0987 53.1874 50.176 52.8585 50.1793 52.5248C50.1826 52.1911 50.112 51.8608 49.9725 51.5576L48.6118 49.9492L44.0986 53.6131Z" fill="white"/>
<path d="M45.1709 20.7772V28.2498C44.4616 28.3756 43.7356 28.3756 43.0263 28.2498V20.7772H45.1709Z" fill="#D1D3D4"/>
<path d="M44.0986 27.2719C47.4581 27.2719 50.1816 24.5485 50.1816 21.189C50.1816 17.8295 47.4581 15.106 44.0986 15.106C40.7391 15.106 38.0157 17.8295 38.0157 21.189C38.0157 24.5485 40.7391 27.2719 44.0986 27.2719Z" fill="white"/>
<path d="M44.0986 26.0924C42.5875 26.0924 41.1304 25.5298 40.0113 24.5144C38.8922 23.4989 38.1911 22.1033 38.0446 20.5992C38.0253 20.7933 38.0157 20.9895 38.0157 21.189C38.0157 22.8023 38.6565 24.3495 39.7973 25.4903C40.9381 26.6311 42.4853 27.2719 44.0986 27.2719C45.7119 27.2719 47.2591 26.6311 48.3999 25.4903C49.5407 24.3495 50.1816 22.8023 50.1816 21.189C50.1816 20.9895 50.1719 20.7933 50.1526 20.5992C50.0061 22.1033 49.305 23.4989 48.1859 24.5144C47.0668 25.5298 45.6098 26.0924 44.0986 26.0924Z" fill="#E6E7E8"/>
<path d="M42.4784 23.8214C42.4779 23.8253 42.4779 23.8293 42.4784 23.8332C42.4782 23.8668 42.4874 23.8998 42.5048 23.9285C42.5222 23.9572 42.5472 23.9806 42.577 23.996C42.6068 24.0114 42.6404 24.0183 42.6739 24.0159C42.7074 24.0134 42.7395 24.0018 42.7668 23.9822L43.9914 23.0923C44.0224 23.0693 44.06 23.0569 44.0986 23.0569C44.1372 23.0569 44.1748 23.0693 44.2058 23.0923L45.4303 23.9822C45.4576 24.0018 45.4898 24.0134 45.5233 24.0159C45.5568 24.0183 45.5903 24.0114 45.6202 23.996C45.65 23.9806 45.675 23.9572 45.6924 23.9285C45.7098 23.8998 45.7189 23.8668 45.7188 23.8332C45.7193 23.8293 45.7193 23.8253 45.7188 23.8214V23.2681C45.7193 23.2642 45.7193 23.2602 45.7188 23.2563C45.7201 23.2338 45.7172 23.2113 45.7102 23.1898L45.3574 22.1015L46.5369 21.2437C46.5615 21.2264 46.5813 21.2032 46.5944 21.1762C46.6076 21.1492 46.6136 21.1193 46.612 21.0893V20.5124C46.6127 20.4881 46.6085 20.4638 46.5997 20.4412C46.5908 20.4185 46.5775 20.3978 46.5605 20.3804C46.5434 20.363 46.5231 20.3492 46.5006 20.3398C46.4782 20.3304 46.454 20.3257 46.4297 20.3258H44.9124C44.8741 20.3257 44.8368 20.3135 44.8058 20.291C44.7749 20.2685 44.7517 20.2368 44.7398 20.2004L44.2712 18.7646C44.2595 18.728 44.2365 18.696 44.2055 18.6734C44.1745 18.6507 44.137 18.6385 44.0986 18.6385C44.0602 18.6385 44.0227 18.6507 43.9917 18.6734C43.9607 18.696 43.9376 18.728 43.926 18.7646L43.4552 20.2004C43.4433 20.2368 43.4202 20.2685 43.3892 20.291C43.3582 20.3135 43.3209 20.3257 43.2826 20.3258H41.7707C41.7464 20.3257 41.7222 20.3304 41.6998 20.3398C41.6773 20.3492 41.657 20.363 41.6399 20.3804C41.6229 20.3978 41.6096 20.4185 41.6007 20.4412C41.5919 20.4638 41.5877 20.4881 41.5884 20.5124V21.0903C41.5868 21.1203 41.5928 21.1502 41.606 21.1773C41.6191 21.2043 41.6389 21.2275 41.6635 21.2448L42.843 22.1026L42.4902 23.1888C42.4832 23.2102 42.4803 23.2327 42.4816 23.2552C42.4811 23.2592 42.4811 23.2631 42.4816 23.267L42.4784 23.8214Z" fill="#E6E7E8"/>
<path d="M42.4784 23.2316C42.4779 23.2355 42.4779 23.2395 42.4784 23.2434C42.4782 23.277 42.4874 23.31 42.5048 23.3387C42.5222 23.3674 42.5472 23.3908 42.577 23.4062C42.6068 23.4216 42.6404 23.4285 42.6739 23.4261C42.7074 23.4237 42.7395 23.412 42.7668 23.3925L43.9914 22.5025C44.0224 22.4795 44.06 22.4671 44.0986 22.4671C44.1372 22.4671 44.1748 22.4795 44.2058 22.5025L45.4303 23.3925C45.4576 23.412 45.4898 23.4237 45.5233 23.4261C45.5568 23.4285 45.5903 23.4216 45.6202 23.4062C45.65 23.3908 45.675 23.3674 45.6924 23.3387C45.7098 23.31 45.7189 23.277 45.7188 23.2434C45.7193 23.2395 45.7193 23.2355 45.7188 23.2316V22.6773C45.7193 22.6734 45.7193 22.6694 45.7188 22.6655C45.7201 22.643 45.7172 22.6204 45.7102 22.599L45.3574 21.5106L46.5369 20.6528C46.5615 20.6356 46.5813 20.6124 46.5944 20.5854C46.6076 20.5583 46.6136 20.5284 46.612 20.4984V19.9226C46.6127 19.8983 46.6085 19.8741 46.5997 19.8514C46.5908 19.8287 46.5775 19.808 46.5605 19.7906C46.5434 19.7732 46.5231 19.7594 46.5006 19.75C46.4782 19.7407 46.454 19.7359 46.4297 19.7361H44.9124C44.8741 19.7359 44.8368 19.7238 44.8058 19.7012C44.7749 19.6787 44.7517 19.647 44.7398 19.6106L44.2712 18.1706C44.2595 18.1339 44.2365 18.102 44.2055 18.0793C44.1745 18.0567 44.137 18.0444 44.0986 18.0444C44.0602 18.0444 44.0227 18.0567 43.9917 18.0793C43.9607 18.102 43.9376 18.1339 43.926 18.1706L43.4552 19.6106C43.4433 19.647 43.4202 19.6787 43.3892 19.7012C43.3582 19.7238 43.3209 19.7359 43.2826 19.7361H41.7707C41.7464 19.7359 41.7222 19.7407 41.6998 19.75C41.6773 19.7594 41.657 19.7732 41.6399 19.7906C41.6229 19.808 41.6096 19.8287 41.6007 19.8514C41.5919 19.8741 41.5877 19.8983 41.5884 19.9226V20.5006C41.5868 20.5306 41.5928 20.5605 41.606 20.5875C41.6191 20.6145 41.6389 20.6377 41.6635 20.655L42.843 21.5128L42.4902 22.599C42.4832 22.6204 42.4803 22.643 42.4816 22.6655C42.4811 22.6694 42.4811 22.6734 42.4816 22.6773L42.4784 23.2316Z" fill="#EC2412"/>
<path d="M44.2712 18.1706L44.742 19.6106C44.7539 19.647 44.777 19.6787 44.808 19.7012C44.839 19.7238 44.8763 19.7359 44.9146 19.7361H46.4286C46.467 19.7362 46.5043 19.7484 46.5353 19.771C46.5663 19.7936 46.5894 19.8254 46.6013 19.8619C46.6131 19.8983 46.6132 19.9376 46.6015 19.9741C46.5897 20.0107 46.5668 20.0425 46.5359 20.0652L45.3113 20.9552C45.28 20.9777 45.2567 21.0096 45.2448 21.0462C45.2328 21.0828 45.2328 21.1223 45.2449 21.1589L45.707 22.599C45.7187 22.6355 45.7186 22.6748 45.7067 22.7112C45.6948 22.7477 45.6717 22.7794 45.6407 22.802C45.6097 22.8246 45.5724 22.8368 45.534 22.8369C45.4957 22.837 45.4583 22.8251 45.4271 22.8027L44.2058 21.9127C44.1748 21.8898 44.1372 21.8774 44.0986 21.8774C44.06 21.8774 44.0224 21.8898 43.9914 21.9127L42.7669 22.8027C42.7357 22.8251 42.6983 22.837 42.66 22.8369C42.6216 22.8368 42.5843 22.8246 42.5533 22.802C42.5223 22.7794 42.4992 22.7477 42.4873 22.7112C42.4754 22.6748 42.4753 22.6355 42.487 22.599L42.9545 21.1589C42.9665 21.1223 42.9666 21.0828 42.9546 21.0462C42.9427 21.0096 42.9193 20.9777 42.888 20.9552L41.6635 20.0652C41.6326 20.0425 41.6096 20.0107 41.5979 19.9741C41.5862 19.9376 41.5862 19.8983 41.5981 19.8619C41.61 19.8254 41.6331 19.7936 41.6641 19.771C41.695 19.7484 41.7324 19.7362 41.7707 19.7361H43.2848C43.3231 19.7359 43.3604 19.7238 43.3914 19.7012C43.4223 19.6787 43.4455 19.647 43.4574 19.6106L43.926 18.1706C43.9377 18.1339 43.9607 18.102 43.9917 18.0793C44.0227 18.0567 44.0602 18.0444 44.0986 18.0444C44.137 18.0444 44.1745 18.0567 44.2055 18.0793C44.2365 18.102 44.2596 18.1339 44.2712 18.1706Z" fill="#EC2412"/>
<path d="M61.2548 28.4718L56.2849 33.4417L56.1959 33.3549C55.7086 32.8694 55.3076 32.3044 55.0099 31.6843L59.7386 26.9556L61.2548 28.4718Z" fill="#D1D3D4"/>
<path d="M60.4978 34.0647C63.8573 34.0647 66.5807 31.3413 66.5807 27.9818C66.5807 24.6223 63.8573 21.8988 60.4978 21.8988C57.1383 21.8988 54.4149 24.6223 54.4149 27.9818C54.4149 31.3413 57.1383 34.0647 60.4978 34.0647Z" fill="white"/>
<path d="M64.7997 31.1031C63.9846 31.9184 62.9545 32.4852 61.8296 32.7376C60.7047 32.99 59.5313 32.9175 58.446 32.5285C57.3607 32.1396 56.4083 31.4503 55.6997 30.5409C54.9911 29.6315 54.5556 28.5395 54.4438 27.392C54.3619 28.2364 54.4575 29.0886 54.7245 29.8938C54.9915 30.6991 55.424 31.4395 55.9942 32.0677C56.5644 32.6958 57.2596 33.1978 58.0353 33.5413C58.811 33.8848 59.65 34.0622 60.4983 34.0622C61.3467 34.0622 62.1856 33.8848 62.9613 33.5413C63.737 33.1978 64.4323 32.6958 65.0025 32.0677C65.5726 31.4395 66.0051 30.6991 66.2721 29.8938C66.5391 29.0886 66.6348 28.2364 66.5529 27.392C66.4181 28.7954 65.7981 30.1078 64.7997 31.1031Z" fill="#E6E7E8"/>
<path d="M58.8776 30.7739V30.7847C58.8771 30.8184 58.8859 30.8516 58.9033 30.8806C58.9206 30.9096 58.9456 30.9331 58.9756 30.9486C59.0056 30.9641 59.0393 30.9709 59.073 30.9683C59.1066 30.9657 59.1389 30.9537 59.1661 30.9337L60.3917 30.0437C60.4228 30.0211 60.4604 30.0088 60.4989 30.0088C60.5374 30.0088 60.575 30.0211 60.6061 30.0437L61.8317 30.9337C61.8589 30.9537 61.8911 30.9657 61.9248 30.9683C61.9584 30.9709 61.9922 30.9641 62.0221 30.9486C62.0521 30.9331 62.0772 30.9096 62.0945 30.8806C62.1118 30.8516 62.1207 30.8184 62.1201 30.7847V30.2056C62.1214 30.1831 62.1185 30.1606 62.1116 30.1391L61.7577 29.0508L62.9372 28.193C62.9617 28.1758 62.9814 28.1525 62.9944 28.1255C63.0074 28.0984 63.0131 28.0685 63.0112 28.0386V27.4606C63.0121 27.4364 63.008 27.4121 62.9993 27.3895C62.9905 27.3668 62.9773 27.3461 62.9604 27.3287C62.9435 27.3113 62.9232 27.2974 62.9008 27.288C62.8784 27.2787 62.8543 27.2739 62.83 27.2741H61.3127C61.2742 27.2742 61.2367 27.2621 61.2055 27.2396C61.1743 27.217 61.151 27.1852 61.139 27.1486L60.6715 25.7086C60.6595 25.6721 60.6363 25.6403 60.6052 25.6178C60.5741 25.5953 60.5367 25.5832 60.4983 25.5832C60.46 25.5832 60.4225 25.5953 60.3915 25.6178C60.3604 25.6403 60.3372 25.6721 60.3252 25.7086L59.8609 27.1508C59.8489 27.1873 59.8256 27.2192 59.7944 27.2417C59.7632 27.2642 59.7257 27.2763 59.6872 27.2762H58.1699C58.1456 27.276 58.1215 27.2808 58.0991 27.2902C58.0767 27.2996 58.0564 27.3134 58.0395 27.3308C58.0226 27.3483 58.0094 27.3689 58.0006 27.3916C57.9919 27.4143 57.9878 27.4385 57.9887 27.4628V28.0407C57.9868 28.0707 57.9925 28.1006 58.0055 28.1276C58.0185 28.1547 58.0382 28.1779 58.0627 28.1951L59.2422 29.0529L58.8883 30.1413C58.8814 30.1627 58.8785 30.1853 58.8798 30.2078V30.7739H58.8776Z" fill="#E6E7E8"/>
<path d="M58.8776 30.1831V30.1939C58.8771 30.2276 58.8859 30.2608 58.9033 30.2898C58.9206 30.3188 58.9456 30.3423 58.9756 30.3578C59.0056 30.3733 59.0393 30.3801 59.073 30.3775C59.1066 30.3749 59.1389 30.3629 59.1661 30.3429L60.3917 29.4529C60.4228 29.4303 60.4604 29.418 60.4989 29.418C60.5374 29.418 60.575 29.4303 60.6061 29.4529L61.8317 30.3429C61.8589 30.3629 61.8911 30.3749 61.9248 30.3775C61.9584 30.3801 61.9922 30.3733 62.0221 30.3578C62.0521 30.3423 62.0772 30.3188 62.0945 30.2898C62.1118 30.2608 62.1207 30.2276 62.1201 30.1939V29.6159C62.1214 29.5934 62.1185 29.5709 62.1116 29.5494L61.7577 28.4611L62.9372 27.6033C62.9617 27.586 62.9814 27.5628 62.9944 27.5357C63.0074 27.5087 63.0131 27.4788 63.0112 27.4489V26.8709C63.0121 26.8466 63.008 26.8224 62.9993 26.7997C62.9905 26.7771 62.9773 26.7564 62.9604 26.739C62.9435 26.7215 62.9232 26.7077 62.9008 26.6983C62.8784 26.6889 62.8543 26.6842 62.83 26.6843H61.3127C61.2742 26.6844 61.2367 26.6724 61.2055 26.6498C61.1743 26.6273 61.151 26.5955 61.139 26.5589L60.6715 25.1188C60.6595 25.0824 60.6363 25.0506 60.6052 25.0281C60.5741 25.0056 60.5367 24.9935 60.4983 24.9935C60.46 24.9935 60.4225 25.0056 60.3915 25.0281C60.3604 25.0506 60.3372 25.0824 60.3252 25.1188L59.8609 26.561C59.8489 26.5976 59.8256 26.6294 59.7944 26.652C59.7632 26.6745 59.7257 26.6866 59.6872 26.6865H58.1699C58.1456 26.6863 58.1215 26.6911 58.0991 26.7005C58.0767 26.7099 58.0564 26.7237 58.0395 26.7411C58.0226 26.7585 58.0094 26.7792 58.0006 26.8019C57.9919 26.8246 57.9878 26.8488 57.9887 26.8731V27.4499C57.9868 27.4799 57.9925 27.5098 58.0055 27.5368C58.0185 27.5639 58.0382 27.5871 58.0627 27.6043L59.2422 28.4622L58.8883 29.5505C58.8814 29.5719 58.8785 29.5945 58.8798 29.617V30.1842L58.8776 30.1831Z" fill="#EC2412"/>
<path d="M60.6715 25.121L61.139 26.561C61.151 26.5976 61.1743 26.6294 61.2055 26.652C61.2367 26.6745 61.2742 26.6866 61.3127 26.6865H62.8268C62.8651 26.6866 62.9024 26.6989 62.9334 26.7215C62.9644 26.7441 62.9875 26.7758 62.9994 26.8123C63.0113 26.8488 63.0113 26.8881 62.9996 26.9246C62.9879 26.9611 62.9649 26.993 62.934 27.0157L61.7084 27.9057C61.6775 27.9285 61.6544 27.9603 61.6425 27.9969C61.6306 28.0334 61.6304 28.0727 61.6419 28.1094L62.1126 29.5494C62.1243 29.5859 62.1242 29.6252 62.1123 29.6617C62.1004 29.6981 62.0773 29.7299 62.0463 29.7524C62.0153 29.775 61.978 29.7872 61.9397 29.7873C61.9013 29.7875 61.8639 29.7755 61.8328 29.7532L60.6072 28.8632C60.576 28.8405 60.5385 28.8283 60.5 28.8283C60.4614 28.8283 60.4239 28.8405 60.3927 28.8632L59.1671 29.7532C59.136 29.7755 59.0986 29.7875 59.0602 29.7873C59.0219 29.7872 58.9846 29.775 58.9536 29.7524C58.9226 29.7299 58.8995 29.6981 58.8876 29.6617C58.8757 29.6252 58.8756 29.5859 58.8873 29.5494L59.3548 28.1094C59.3667 28.0729 59.3669 28.0335 59.3551 27.9969C59.3434 27.9603 59.3204 27.9284 59.2894 27.9057L58.0627 27.021C58.0318 26.9983 58.0088 26.9665 57.9971 26.9299C57.9854 26.8934 57.9854 26.8541 57.9973 26.8177C58.0092 26.7812 58.0323 26.7494 58.0633 26.7268C58.0942 26.7042 58.1316 26.692 58.1699 26.6918H59.684C59.7224 26.692 59.76 26.6799 59.7912 26.6573C59.8224 26.6348 59.8457 26.603 59.8577 26.5664L60.3252 25.1263C60.3366 25.0897 60.3593 25.0576 60.39 25.0346C60.4208 25.0116 60.458 24.9988 60.4964 24.9983C60.5348 24.9977 60.5724 25.0092 60.6038 25.0312C60.6353 25.0533 60.659 25.0847 60.6715 25.121Z" fill="#EC2412"/>
<path d="M33.1862 31.6822C32.8889 32.3032 32.4879 32.8689 32.0002 33.3549C31.9713 33.3838 31.9423 33.4128 31.9123 33.4396L26.9424 28.4718L28.4575 26.9556L33.1862 31.6822Z" fill="#D1D3D4"/>
<path d="M27.6994 34.0647C31.0589 34.0647 33.7823 31.3413 33.7823 27.9818C33.7823 24.6223 31.0589 21.8988 27.6994 21.8988C24.3399 21.8988 21.6165 24.6223 21.6165 27.9818C21.6165 31.3413 24.3399 34.0647 27.6994 34.0647Z" fill="white"/>
<path d="M32.0003 31.1031C31.1851 31.9184 30.1551 32.4852 29.0302 32.7376C27.9053 32.99 26.7318 32.9175 25.6466 32.5285C24.5613 32.1396 23.6089 31.4503 22.9003 30.5409C22.1917 29.6315 21.7561 28.5395 21.6444 27.392C21.5624 28.2364 21.6581 29.0886 21.9251 29.8938C22.1921 30.6991 22.6246 31.4395 23.1947 32.0677C23.7649 32.6958 24.4602 33.1978 25.2359 33.5413C26.0116 33.8848 26.8505 34.0622 27.6989 34.0622C28.5472 34.0622 29.3862 33.8848 30.1619 33.5413C30.9376 33.1978 31.6328 32.6958 32.203 32.0677C32.7732 31.4395 33.2057 30.6991 33.4727 29.8938C33.7397 29.0886 33.8353 28.2364 33.7534 27.392C33.6192 28.7955 32.9991 30.1081 32.0003 31.1031Z" fill="#E6E7E8"/>
<path d="M26.0781 30.7739V30.7847C26.0776 30.8184 26.0865 30.8516 26.1038 30.8806C26.1211 30.9096 26.1462 30.9331 26.1761 30.9486C26.2061 30.9641 26.2398 30.9709 26.2735 30.9683C26.3071 30.9657 26.3394 30.9537 26.3666 30.9337L27.5922 30.0437C27.6233 30.0211 27.6609 30.0088 27.6994 30.0088C27.7379 30.0088 27.7755 30.0211 27.8066 30.0437L29.0322 30.9337C29.0594 30.9537 29.0917 30.9657 29.1253 30.9683C29.159 30.9709 29.1927 30.9641 29.2227 30.9486C29.2527 30.9331 29.2777 30.9096 29.295 30.8806C29.3123 30.8516 29.3212 30.8184 29.3207 30.7847V30.2056C29.3219 30.1831 29.319 30.1606 29.3121 30.1391L28.9582 29.0508L30.1377 28.193C30.1623 28.1758 30.182 28.1525 30.1949 28.1255C30.2079 28.0984 30.2137 28.0685 30.2117 28.0386V27.4606C30.2126 27.4364 30.2085 27.4121 30.1998 27.3895C30.1911 27.3668 30.1778 27.3461 30.1609 27.3287C30.144 27.3113 30.1237 27.2974 30.1013 27.288C30.0789 27.2787 30.0548 27.2739 30.0305 27.2741H28.5133C28.4748 27.2742 28.4372 27.2621 28.406 27.2396C28.3748 27.217 28.3516 27.1852 28.3396 27.1486L27.872 25.7086C27.8601 25.6721 27.8369 25.6403 27.8058 25.6178C27.7747 25.5953 27.7373 25.5832 27.6989 25.5832C27.6605 25.5832 27.6231 25.5953 27.592 25.6178C27.5609 25.6403 27.5377 25.6721 27.5257 25.7086L27.0582 27.1486C27.0462 27.1852 27.0229 27.217 26.9917 27.2396C26.9605 27.2621 26.923 27.2742 26.8845 27.2741H25.3705C25.3462 27.2739 25.3221 27.2787 25.2997 27.288C25.2773 27.2974 25.257 27.3113 25.24 27.3287C25.2231 27.3461 25.2099 27.3668 25.2012 27.3895C25.1924 27.4121 25.1884 27.4364 25.1892 27.4606V28.0386C25.1873 28.0685 25.1931 28.0984 25.206 28.1255C25.219 28.1525 25.2387 28.1758 25.2632 28.193L26.4427 29.0508L26.0846 30.1391C26.0777 30.1606 26.0748 30.1831 26.076 30.2056V30.7739H26.0781Z" fill="#E6E7E8"/>
<path d="M26.0781 30.1831V30.1939C26.0776 30.2276 26.0865 30.2608 26.1038 30.2898C26.1211 30.3188 26.1462 30.3423 26.1761 30.3578C26.2061 30.3733 26.2398 30.3801 26.2735 30.3775C26.3071 30.3749 26.3394 30.3629 26.3666 30.3429L27.5922 29.4529C27.6233 29.4303 27.6609 29.418 27.6994 29.418C27.7379 29.418 27.7755 29.4303 27.8066 29.4529L29.0322 30.3429C29.0594 30.3629 29.0917 30.3749 29.1253 30.3775C29.159 30.3801 29.1927 30.3733 29.2227 30.3578C29.2527 30.3423 29.2777 30.3188 29.295 30.2898C29.3123 30.2608 29.3212 30.2276 29.3207 30.1939V29.6159C29.3219 29.5934 29.319 29.5709 29.3121 29.5494L28.9582 28.4611L30.1377 27.6033C30.1623 27.586 30.182 27.5628 30.1949 27.5357C30.2079 27.5087 30.2137 27.4788 30.2117 27.4489V26.8709C30.2126 26.8466 30.2085 26.8224 30.1998 26.7997C30.1911 26.7771 30.1778 26.7564 30.1609 26.739C30.144 26.7215 30.1237 26.7077 30.1013 26.6983C30.0789 26.6889 30.0548 26.6842 30.0305 26.6843H28.5133C28.4748 26.6844 28.4372 26.6724 28.406 26.6498C28.3748 26.6273 28.3516 26.5955 28.3396 26.5589L27.872 25.1188C27.8601 25.0824 27.8369 25.0506 27.8058 25.0281C27.7747 25.0056 27.7373 24.9935 27.6989 24.9935C27.6605 24.9935 27.6231 25.0056 27.592 25.0281C27.5609 25.0506 27.5377 25.0824 27.5257 25.1188L27.0582 26.5589C27.0462 26.5955 27.0229 26.6273 26.9917 26.6498C26.9605 26.6724 26.923 26.6844 26.8845 26.6843H25.3705C25.3462 26.6842 25.3221 26.6889 25.2997 26.6983C25.2773 26.7077 25.257 26.7215 25.24 26.739C25.2231 26.7564 25.2099 26.7771 25.2012 26.7997C25.1924 26.8224 25.1884 26.8466 25.1892 26.8709V27.4499C25.1873 27.4799 25.1931 27.5098 25.206 27.5368C25.219 27.5639 25.2387 27.5871 25.2632 27.6043L26.4427 28.4622L26.0846 29.5494C26.0777 29.5709 26.0748 29.5934 26.076 29.6159V30.1831H26.0781Z" fill="#EC2412"/>
<path d="M27.872 25.121L28.3363 26.561C28.3483 26.5976 28.3716 26.6294 28.4028 26.652C28.434 26.6745 28.4716 26.6866 28.51 26.6865H30.0241C30.0624 26.6866 30.0998 26.6989 30.1308 26.7215C30.1617 26.7441 30.1848 26.7758 30.1967 26.8123C30.2086 26.8488 30.2087 26.8881 30.1969 26.9246C30.1852 26.9611 30.1622 26.993 30.1313 27.0157L28.9057 27.9057C28.8747 27.9284 28.8517 27.9603 28.84 27.9969C28.8282 28.0335 28.8283 28.0729 28.8403 28.1094L29.3078 29.5494C29.3195 29.5859 29.3194 29.6252 29.3075 29.6617C29.2956 29.6981 29.2725 29.7299 29.2415 29.7524C29.2105 29.775 29.1732 29.7872 29.1348 29.7873C29.0965 29.7875 29.0591 29.7755 29.0279 29.7532L27.8024 28.8632C27.7712 28.8405 27.7337 28.8283 27.6951 28.8283C27.6566 28.8283 27.6191 28.8405 27.5879 28.8632L26.3623 29.7532C26.3312 29.7755 26.2937 29.7875 26.2554 29.7873C26.2171 29.7872 26.1797 29.775 26.1487 29.7524C26.1178 29.7299 26.0947 29.6981 26.0828 29.6617C26.0709 29.6252 26.0707 29.5859 26.0824 29.5494L26.551 28.1094C26.5625 28.0727 26.5623 28.0334 26.5504 27.9969C26.5385 27.9603 26.5155 27.9285 26.4845 27.9057L25.2632 27.021C25.2323 26.9983 25.2094 26.9665 25.1976 26.9299C25.1859 26.8934 25.186 26.8541 25.1978 26.8177C25.2097 26.7812 25.2328 26.7494 25.2638 26.7268C25.2948 26.7042 25.3321 26.692 25.3705 26.6918H26.8845C26.923 26.692 26.9605 26.6799 26.9917 26.6573C27.0229 26.6348 27.0462 26.603 27.0582 26.5664L27.5257 25.1263C27.5371 25.0897 27.5598 25.0576 27.5906 25.0346C27.6213 25.0116 27.6585 24.9988 27.6969 24.9983C27.7353 24.9977 27.7729 25.0092 27.8044 25.0312C27.8358 25.0533 27.8595 25.0847 27.872 25.121Z" fill="#EC2412"/>
<path d="M25.2072 48.6823C27.5827 46.3067 27.5827 42.4552 25.2072 40.0797C22.8316 37.7041 18.9801 37.7042 16.6046 40.0797C14.229 42.4552 14.229 46.3067 16.6046 48.6823C18.9801 51.0578 22.8316 51.0578 25.2072 48.6823Z" fill="white"/>
<path d="M20.9066 49.2844C19.3954 49.2844 17.9382 48.7218 16.8189 47.7064C15.6996 46.691 14.9983 45.2953 14.8516 43.7912C14.8333 43.9853 14.8226 44.1826 14.8226 44.3809C14.8438 45.9804 15.4941 47.5071 16.6327 48.6307C17.7713 49.7542 19.3065 50.3842 20.9061 50.3842C22.5057 50.3842 24.0409 49.7542 25.1795 48.6307C26.318 47.5071 26.9683 45.9804 26.9896 44.3809C26.9896 44.1826 26.9788 43.9853 26.9606 43.7912C26.8139 45.2951 26.1127 46.6906 24.9937 47.7061C23.8746 48.7215 22.4177 49.2841 20.9066 49.2844Z" fill="#E6E7E8"/>
<path d="M19.2854 47.1592V47.171C19.285 47.2046 19.2941 47.2377 19.3115 47.2665C19.3288 47.2953 19.3539 47.3187 19.3839 47.3341C19.4138 47.3495 19.4474 47.3562 19.481 47.3535C19.5145 47.3508 19.5467 47.3389 19.5738 47.3189L20.7994 46.429C20.8306 46.4063 20.8681 46.3941 20.9066 46.3941C20.9452 46.3941 20.9827 46.4063 21.0139 46.429L22.2395 47.3189C22.2666 47.3389 22.2987 47.3508 22.3323 47.3535C22.3658 47.3562 22.3995 47.3495 22.4294 47.3341C22.4594 47.3187 22.4844 47.2953 22.5018 47.2665C22.5192 47.2377 22.5283 47.2046 22.5279 47.171V46.592C22.5292 46.5695 22.5262 46.5469 22.5193 46.5255L22.1655 45.4371L23.345 44.5793C23.3694 44.5618 23.3891 44.5383 23.402 44.5111C23.4149 44.4839 23.4208 44.4539 23.419 44.4238V43.8459C23.4197 43.8216 23.4155 43.7975 23.4067 43.7749C23.3979 43.7523 23.3847 43.7317 23.3678 43.7143C23.3509 43.6969 23.3307 43.683 23.3083 43.6736C23.286 43.6642 23.262 43.6593 23.2377 43.6593H21.7205C21.682 43.6594 21.6445 43.6473 21.6133 43.6248C21.5821 43.6023 21.5588 43.5704 21.5468 43.5339L21.0793 42.0938C21.0673 42.0573 21.0441 42.0256 21.013 42.0031C20.9819 41.9806 20.9445 41.9684 20.9061 41.9684C20.8677 41.9684 20.8303 41.9806 20.7992 42.0031C20.7681 42.0256 20.7449 42.0573 20.7329 42.0938L20.2654 43.5339C20.2534 43.5704 20.2302 43.6023 20.199 43.6248C20.1677 43.6473 20.1302 43.6594 20.0917 43.6593H18.5788C18.5545 43.6593 18.5305 43.6642 18.5081 43.6736C18.4858 43.683 18.4656 43.6969 18.4487 43.7143C18.4318 43.7317 18.4186 43.7523 18.4098 43.7749C18.401 43.7975 18.3968 43.8216 18.3975 43.8459V44.4238C18.3957 44.4539 18.4015 44.4839 18.4145 44.5111C18.4274 44.5383 18.4471 44.5618 18.4715 44.5793L19.651 45.4371L19.2972 46.5255C19.2903 46.5469 19.2873 46.5695 19.2886 46.592V47.1592H19.2854Z" fill="#E6E7E8"/>
<path d="M19.2854 46.5694V46.5812C19.285 46.6149 19.2941 46.648 19.3115 46.6768C19.3288 46.7056 19.3539 46.729 19.3839 46.7444C19.4138 46.7597 19.4474 46.7664 19.481 46.7638C19.5145 46.7611 19.5467 46.7491 19.5738 46.7292L20.7994 45.8392C20.8306 45.8166 20.8681 45.8044 20.9066 45.8044C20.9452 45.8044 20.9827 45.8166 21.0139 45.8392L22.2395 46.7292C22.2666 46.7491 22.2987 46.7611 22.3323 46.7638C22.3658 46.7664 22.3995 46.7597 22.4294 46.7444C22.4594 46.729 22.4844 46.7056 22.5018 46.6768C22.5192 46.648 22.5283 46.6149 22.5279 46.5812V46.0001C22.5292 45.9776 22.5262 45.955 22.5193 45.9336L22.1655 44.8452L23.345 43.9874C23.3694 43.9699 23.3891 43.9464 23.402 43.9192C23.4149 43.892 23.4208 43.862 23.419 43.8319V43.254C23.4197 43.2298 23.4155 43.2056 23.4067 43.183C23.3979 43.1604 23.3847 43.1398 23.3678 43.1224C23.3509 43.105 23.3307 43.0912 23.3083 43.0817C23.286 43.0723 23.262 43.0674 23.2377 43.0674H21.7205C21.682 43.0675 21.6445 43.0555 21.6133 43.0329C21.5821 43.0104 21.5588 42.9785 21.5468 42.942L21.0793 41.5019C21.0673 41.4655 21.0441 41.4337 21.013 41.4112C20.9819 41.3887 20.9445 41.3766 20.9061 41.3766C20.8677 41.3766 20.8303 41.3887 20.7992 41.4112C20.7681 41.4337 20.7449 41.4655 20.7329 41.5019L20.2654 42.942C20.2534 42.9785 20.2302 43.0104 20.199 43.0329C20.1677 43.0555 20.1302 43.0675 20.0917 43.0674H18.5788C18.5545 43.0674 18.5305 43.0723 18.5081 43.0817C18.4858 43.0912 18.4656 43.105 18.4487 43.1224C18.4318 43.1398 18.4186 43.1604 18.4098 43.183C18.401 43.2056 18.3968 43.2298 18.3975 43.254V43.8319C18.3957 43.862 18.4015 43.892 18.4145 43.9192C18.4274 43.9464 18.4471 43.9699 18.4715 43.9874L19.651 44.8452L19.2972 45.9336C19.2903 45.955 19.2873 45.9776 19.2886 46.0001V46.5673L19.2854 46.5694Z" fill="#EC2412"/>
<path d="M21.0793 41.5073L21.5468 42.9474C21.5588 42.9839 21.582 43.0158 21.6132 43.0383C21.6445 43.0608 21.682 43.0729 21.7205 43.0728H23.2345C23.2732 43.0726 23.3108 43.0848 23.3421 43.1074C23.3734 43.1301 23.3967 43.1621 23.4087 43.1988C23.4206 43.2355 23.4205 43.2751 23.4085 43.3118C23.3965 43.3486 23.3731 43.3805 23.3417 43.4031L22.1172 44.293C22.0862 44.3155 22.0631 44.3472 22.0514 44.3837C22.0396 44.4201 22.0398 44.4594 22.0518 44.4957L22.5193 45.9358C22.531 45.9723 22.5309 46.0115 22.519 46.048C22.5071 46.0844 22.484 46.1162 22.453 46.1387C22.422 46.1613 22.3847 46.1735 22.3464 46.1737C22.308 46.1738 22.2706 46.1618 22.2395 46.1395L21.0128 45.2495C20.9816 45.2268 20.9441 45.2146 20.9056 45.2146C20.867 45.2146 20.8295 45.2268 20.7983 45.2495L19.5727 46.1395C19.5416 46.1618 19.5042 46.1738 19.4658 46.1737C19.4275 46.1735 19.3902 46.1613 19.3592 46.1387C19.3282 46.1162 19.3051 46.0844 19.2932 46.048C19.2813 46.0115 19.2812 45.9723 19.2929 45.9358L19.7582 44.4989C19.7703 44.4626 19.7705 44.4233 19.7587 44.3869C19.7469 44.3504 19.7239 44.3187 19.6928 44.2963L18.4715 43.4031C18.4402 43.3805 18.4168 43.3486 18.4048 43.3118C18.3927 43.2751 18.3927 43.2355 18.4046 43.1988C18.4165 43.1621 18.4398 43.1301 18.4711 43.1074C18.5024 43.0848 18.5401 43.0726 18.5788 43.0728H20.0928C20.1313 43.0729 20.1688 43.0608 20.2 43.0383C20.2312 43.0158 20.2545 42.9839 20.2665 42.9474L20.734 41.5073C20.7462 41.4712 20.7695 41.4399 20.8004 41.4177C20.8314 41.3955 20.8685 41.3835 20.9066 41.3835C20.9447 41.3835 20.9819 41.3955 21.0128 41.4177C21.0438 41.4399 21.067 41.4712 21.0793 41.5073Z" fill="#EC2412"/>
<path d="M71.5919 48.6825C73.9674 46.307 73.9674 42.4555 71.5919 40.08C69.2163 37.7044 65.3648 37.7044 62.9893 40.08C60.6137 42.4555 60.6137 46.307 62.9893 48.6825C65.3648 51.0581 69.2163 51.0581 71.5919 48.6825Z" fill="white"/>
<path d="M67.2906 49.2844C65.7795 49.2841 64.3226 48.7215 63.2035 47.7061C62.0845 46.6906 61.3833 45.2951 61.2366 43.7912C61.2184 43.9853 61.2076 44.1826 61.2076 44.3809C61.2289 45.9804 61.8791 47.5071 63.0177 48.6307C64.1563 49.7542 65.6915 50.3842 67.2911 50.3842C68.8907 50.3842 70.4259 49.7542 71.5645 48.6307C72.7031 47.5071 73.3534 45.9804 73.3746 44.3809C73.3746 44.1826 73.3639 43.9853 73.3456 43.7912C73.1989 45.2953 72.4976 46.691 71.3783 47.7064C70.259 48.7218 68.8018 49.2844 67.2906 49.2844Z" fill="#E6E7E8"/>
<path d="M65.6704 47.1592V47.171C65.67 47.2046 65.6791 47.2377 65.6965 47.2665C65.7139 47.2954 65.7389 47.3188 65.7689 47.3341C65.7988 47.3495 65.8325 47.3562 65.866 47.3535C65.8996 47.3508 65.9317 47.3389 65.9588 47.319L67.1844 46.429C67.2156 46.4063 67.2531 46.3941 67.2917 46.3941C67.3302 46.3941 67.3677 46.4063 67.3989 46.429L68.6245 47.319C68.6516 47.3389 68.6837 47.3508 68.7173 47.3535C68.7508 47.3562 68.7845 47.3495 68.8144 47.3341C68.8444 47.3188 68.8694 47.2954 68.8868 47.2665C68.9042 47.2377 68.9133 47.2046 68.9129 47.171V46.592C68.9142 46.5695 68.9113 46.5469 68.9043 46.5255L68.5462 45.4371L69.7257 44.5793C69.7502 44.5618 69.7698 44.5383 69.7827 44.5111C69.7957 44.4839 69.8015 44.4539 69.7997 44.4239V43.8459C69.8 43.8219 69.7955 43.7981 69.7865 43.7759C69.7775 43.7537 69.7642 43.7334 69.7474 43.7164C69.7305 43.6993 69.7104 43.6858 69.6883 43.6765C69.6662 43.6673 69.6424 43.6625 69.6185 43.6626H68.1055C68.067 43.6627 68.0295 43.6506 67.9983 43.628C67.9671 43.6055 67.9438 43.5737 67.9318 43.5371L67.4643 42.097C67.4523 42.0606 67.4291 42.0288 67.398 42.0063C67.3669 41.9838 67.3295 41.9717 67.2911 41.9717C67.2527 41.9717 67.2153 41.9838 67.1842 42.0063C67.1531 42.0288 67.1299 42.0606 67.1179 42.097L66.6504 43.5339C66.6384 43.5705 66.6152 43.6023 66.584 43.6248C66.5528 43.6474 66.5152 43.6594 66.4767 43.6593H64.9627C64.9384 43.6593 64.9144 43.6642 64.8921 43.6736C64.8697 43.6831 64.8495 43.6969 64.8326 43.7143C64.8157 43.7317 64.8025 43.7523 64.7937 43.7749C64.7849 43.7975 64.7808 43.8217 64.7815 43.8459V44.4239C64.7797 44.4539 64.7855 44.4839 64.7984 44.5111C64.8114 44.5383 64.831 44.5618 64.8555 44.5793L66.035 45.4371L65.6811 46.5255C65.6742 46.5469 65.6713 46.5695 65.6725 46.592V47.1592H65.6704Z" fill="#E6E7E8"/>
<path d="M65.6704 46.5694V46.5812C65.67 46.6149 65.6791 46.648 65.6965 46.6768C65.7139 46.7056 65.7389 46.729 65.7689 46.7444C65.7988 46.7597 65.8325 46.7665 65.866 46.7638C65.8996 46.7611 65.9317 46.7491 65.9588 46.7292L67.1844 45.8392C67.2156 45.8166 67.2531 45.8044 67.2917 45.8044C67.3302 45.8044 67.3677 45.8166 67.3989 45.8392L68.6245 46.7292C68.6516 46.7491 68.6837 46.7611 68.7173 46.7638C68.7508 46.7665 68.7845 46.7597 68.8144 46.7444C68.8444 46.729 68.8694 46.7056 68.8868 46.6768C68.9042 46.648 68.9133 46.6149 68.9129 46.5812V46.0001C68.9142 45.9776 68.9113 45.955 68.9043 45.9336L68.5462 44.8474L69.7257 43.9896C69.7502 43.972 69.7698 43.9486 69.7827 43.9214C69.7957 43.8942 69.8015 43.8642 69.7997 43.8341V43.2562C69.8 43.2322 69.7955 43.2084 69.7865 43.1861C69.7775 43.1639 69.7642 43.1437 69.7474 43.1266C69.7305 43.1096 69.7104 43.096 69.6883 43.0868C69.6662 43.0776 69.6424 43.0728 69.6185 43.0728H68.1055C68.067 43.0729 68.0295 43.0608 67.9983 43.0383C67.9671 43.0158 67.9438 42.9839 67.9318 42.9473L67.4643 41.5073C67.4523 41.4708 67.4291 41.4391 67.398 41.4166C67.3669 41.394 67.3295 41.3819 67.2911 41.3819C67.2527 41.3819 67.2153 41.394 67.1842 41.4166C67.1531 41.4391 67.1299 41.4708 67.1179 41.5073L66.6504 42.9473C66.6384 42.9839 66.6152 43.0158 66.584 43.0383C66.5528 43.0608 66.5152 43.0729 66.4767 43.0728H64.9627C64.9384 43.0728 64.9144 43.0776 64.8921 43.0871C64.8697 43.0965 64.8495 43.1104 64.8326 43.1278C64.8157 43.1452 64.8025 43.1658 64.7937 43.1884C64.7849 43.211 64.7808 43.2351 64.7815 43.2594V43.8373C64.7797 43.8674 64.7855 43.8974 64.7984 43.9246C64.8114 43.9518 64.831 43.9753 64.8555 43.9928L66.035 44.8506L65.6811 45.939C65.6742 45.9604 65.6713 45.9829 65.6725 46.0054V46.5727L65.6704 46.5694Z" fill="#EC2412"/>
<path d="M67.4643 41.5073L67.9318 42.9473C67.9438 42.9839 67.9671 43.0158 67.9983 43.0383C68.0295 43.0608 68.067 43.0729 68.1055 43.0728H69.6185C69.6571 43.0726 69.6948 43.0848 69.7261 43.1074C69.7574 43.13 69.7807 43.162 69.7926 43.1988C69.8045 43.2355 69.8045 43.2751 69.7925 43.3118C69.7804 43.3486 69.757 43.3805 69.7257 43.4031L68.5001 44.293C68.4692 44.3162 68.4465 44.3488 68.4355 44.3859C68.4245 44.4229 68.4257 44.4626 68.439 44.4989L68.9065 45.939C68.9182 45.9755 68.9181 46.0147 68.9062 46.0512C68.8943 46.0876 68.8712 46.1194 68.8402 46.142C68.8092 46.1645 68.7718 46.1767 68.7335 46.1769C68.6952 46.177 68.6578 46.165 68.6266 46.1427L67.3978 45.2495C67.3666 45.2268 67.3291 45.2146 67.2906 45.2146C67.252 45.2146 67.2145 45.2268 67.1833 45.2495L65.9578 46.1395C65.9266 46.1618 65.8892 46.1738 65.8509 46.1737C65.8125 46.1735 65.7752 46.1613 65.7442 46.1387C65.7132 46.1162 65.6901 46.0844 65.6782 46.048C65.6663 46.0115 65.6662 45.9723 65.6779 45.9357L66.1465 44.4989C66.1585 44.4626 66.1587 44.4233 66.1469 44.3869C66.1352 44.3504 66.1121 44.3187 66.0811 44.2963L64.8555 43.4063C64.8241 43.3837 64.8007 43.3518 64.7887 43.3151C64.7767 43.2783 64.7766 43.2388 64.7885 43.202C64.8005 43.1653 64.8238 43.1333 64.8551 43.1106C64.8864 43.088 64.9241 43.0759 64.9627 43.076H66.4767C66.5152 43.0761 66.5528 43.064 66.584 43.0415C66.6152 43.019 66.6384 42.9871 66.6504 42.9506L67.1179 41.5105C67.1296 41.4739 67.1525 41.442 67.1834 41.4192C67.2143 41.3964 67.2516 41.3839 67.2899 41.3835C67.3283 41.3832 67.3659 41.3949 67.3972 41.4172C67.4285 41.4394 67.452 41.4709 67.4643 41.5073Z" fill="#EC2412"/>
</g>
<defs>
<clipPath id="clip0_3_15">
<rect width="85.3521" height="85.3521" fill="white"/>
</clipPath>
</defs>
</svg>
