<svg width="87" height="86" viewBox="0 0 87 86" fill="none" xmlns="http://www.w3.org/2000/svg">
<g clip-path="url(#clip0_3_93)">
<path d="M43.6338 85.3521C67.2032 85.3521 86.3099 66.2454 86.3099 42.6761C86.3099 19.1067 67.2032 0 43.6338 0C20.0645 0 0.957764 19.1067 0.957764 42.6761C0.957764 66.2454 20.0645 85.3521 43.6338 85.3521Z" fill="#EC2412" fill-opacity="0.06"/>
<path d="M43.6338 79.5976C64.025 79.5976 80.5554 63.0673 80.5554 42.6761C80.5554 22.2848 64.025 5.75449 43.6338 5.75449C23.2426 5.75449 6.71224 22.2848 6.71224 42.6761C6.71224 63.0673 23.2426 79.5976 43.6338 79.5976Z" fill="white"/>
<path d="M68.8213 25.8558H18.4464C18.017 25.8558 17.6051 26.0264 17.3015 26.3301C16.9978 26.6337 16.8273 27.0455 16.8273 27.475V62.8811C16.827 62.9903 16.8378 63.0993 16.8594 63.2063C16.8881 63.3508 16.9374 63.4905 17.006 63.6209C17.0629 63.7322 17.1324 63.8365 17.2133 63.9319C17.2787 64.0104 17.3517 64.0822 17.4313 64.1463C17.5125 64.21 17.5986 64.2674 17.6886 64.3179C17.7953 64.3745 17.908 64.4189 18.0246 64.4501C18.1618 64.4898 18.3036 64.5114 18.4464 64.5145H68.8213C68.964 64.5114 69.1058 64.4898 69.243 64.4501C69.3596 64.4189 69.4724 64.3745 69.579 64.3179C69.6691 64.2674 69.7551 64.21 69.8363 64.1463C69.9159 64.0822 69.989 64.0104 70.0544 63.9319C70.1352 63.8365 70.2048 63.7322 70.2617 63.6209C70.3289 63.495 70.3782 63.3602 70.4082 63.2206C70.4299 63.1136 70.4407 63.0046 70.4404 62.8954V27.475C70.4404 27.0455 70.2698 26.6337 69.9662 26.3301C69.6625 26.0264 69.2507 25.8558 68.8213 25.8558Z" fill="#EC2412" fill-opacity="0.06"/>
<path d="M68.8213 23.3539H18.4464C17.5522 23.3539 16.8273 24.0788 16.8273 24.973V60.3755C16.8273 61.2698 17.5522 61.9947 18.4464 61.9947H68.8213C69.7155 61.9947 70.4404 61.2698 70.4404 60.3755V24.973C70.4404 24.0788 69.7155 23.3539 68.8213 23.3539Z" fill="white"/>
<path d="M49.1059 51.1112C48.8343 50.7716 48.6958 50.3446 48.7163 49.9102C48.731 49.5087 48.6098 49.1139 48.3725 48.7896C48.1351 48.4654 47.7954 48.2306 47.4082 48.1231C46.9874 48.01 46.6233 47.7452 46.386 47.3797C46.1631 47.0416 45.832 46.7892 45.4469 46.6639C45.0619 46.5386 44.6456 46.5477 44.2665 46.6899C43.8594 46.8472 43.4083 46.8472 43.0012 46.6899C42.622 46.5477 42.2058 46.5386 41.8207 46.6639C41.4356 46.7892 41.1045 47.0416 40.8817 47.3797C40.6443 47.7452 40.2803 48.01 39.8595 48.1231C39.4722 48.2306 39.1325 48.4654 38.8952 48.7896C38.6578 49.1139 38.5367 49.5087 38.5513 49.9102C38.5719 50.3446 38.4334 50.7716 38.1617 51.1112C37.9088 51.4279 37.7711 51.8211 37.7711 52.2263C37.7711 52.6316 37.9088 53.0248 38.1617 53.3415C38.4334 53.6811 38.5719 54.108 38.5513 54.5424C38.5367 54.944 38.6578 55.3388 38.8952 55.663C39.1325 55.9873 39.4722 56.2221 39.8595 56.3295C40.2803 56.4427 40.6443 56.7075 40.8817 57.073C41.1045 57.4111 41.4356 57.6635 41.8207 57.7888C42.2058 57.9141 42.622 57.905 43.0012 57.7628C43.4083 57.6055 43.8594 57.6055 44.2665 57.7628C44.6456 57.905 45.0619 57.9141 45.4469 57.7888C45.832 57.6635 46.1631 57.4111 46.386 57.073C46.6233 56.7075 46.9874 56.4427 47.4082 56.3295C47.7954 56.2221 48.1351 55.9873 48.3725 55.663C48.6098 55.3388 48.731 54.944 48.7163 54.5424C48.6958 54.108 48.8343 53.6811 49.1059 53.3415C49.3588 53.0248 49.4965 52.6316 49.4965 52.2263C49.4965 51.8211 49.3588 51.4279 49.1059 51.1112Z" fill="#BCBEC0"/>
<path d="M44.2665 46.3003C44.6456 46.1581 45.0619 46.149 45.4469 46.2743C45.832 46.3996 46.1631 46.652 46.386 46.9901C46.6233 47.3556 46.9874 47.6204 47.4082 47.7336C47.7954 47.841 48.1351 48.0758 48.3725 48.4C48.6098 48.7243 48.731 49.1191 48.7163 49.5207C48.6958 49.955 48.8343 50.382 49.1059 50.7216C49.3588 51.0383 49.4965 51.4315 49.4965 51.8368C49.4965 52.242 49.3588 52.6352 49.1059 52.9519C48.8343 53.2915 48.6958 53.7185 48.7163 54.1528C48.731 54.5544 48.6098 54.9492 48.3725 55.2735C48.1351 55.5977 47.7954 55.8325 47.4082 55.9399C46.9874 56.0531 46.6233 56.3179 46.386 56.6834C46.1631 57.0215 45.832 57.2739 45.4469 57.3992C45.0619 57.5245 44.6456 57.5154 44.2665 57.3732C43.8594 57.2159 43.4083 57.2159 43.0012 57.3732C42.622 57.5154 42.2058 57.5245 41.8207 57.3992C41.4356 57.2739 41.1045 57.0215 40.8817 56.6834C40.6443 56.3179 40.2803 56.0531 39.8595 55.9399C39.4722 55.8325 39.1325 55.5977 38.8952 55.2735C38.6578 54.9492 38.5367 54.5544 38.5513 54.1528C38.5719 53.7185 38.4334 53.2915 38.1617 52.9519C37.9088 52.6352 37.7711 52.242 37.7711 51.8368C37.7711 51.4315 37.9088 51.0383 38.1617 50.7216C38.4334 50.382 38.5719 49.955 38.5513 49.5207C38.5367 49.1191 38.6578 48.7243 38.8952 48.4C39.1325 48.0758 39.4722 47.841 39.8595 47.7336C40.2803 47.6204 40.6443 47.3556 40.8817 46.9901C41.1045 46.652 41.4356 46.3996 41.8207 46.2743C42.2058 46.149 42.622 46.1581 43.0012 46.3003C43.4083 46.4576 43.8594 46.4576 44.2665 46.3003Z" fill="#FEDE3A"/>
<path d="M44.0877 47.873C44.3592 47.7694 44.6579 47.7618 44.9343 47.8516C45.2106 47.9413 45.4479 48.1229 45.6068 48.3662C45.7723 48.6248 46.0265 48.8141 46.3216 48.8988C46.602 48.9751 46.8478 49.1451 47.0181 49.3805C47.1885 49.6158 47.2732 49.9024 47.2581 50.1926C47.2439 50.5046 47.3443 50.8109 47.5404 51.054C47.7226 51.2797 47.822 51.561 47.822 51.8511C47.822 52.1411 47.7226 52.4224 47.5404 52.6481C47.3441 52.8924 47.2437 53.2 47.2581 53.5131C47.273 53.8028 47.1882 54.0889 47.0178 54.3236C46.8474 54.5584 46.6017 54.7277 46.3216 54.8033C46.0265 54.888 45.7723 55.0773 45.6068 55.3359C45.4479 55.5792 45.2106 55.7608 44.9343 55.8505C44.6579 55.9403 44.3592 55.9327 44.0877 55.8291C43.7953 55.7182 43.4723 55.7182 43.1799 55.8291C42.9084 55.9327 42.6097 55.9403 42.3333 55.8505C42.057 55.7608 41.8197 55.5792 41.6608 55.3359C41.4953 55.0773 41.2411 54.888 40.946 54.8033C40.6659 54.7277 40.4202 54.5584 40.2498 54.3236C40.0794 54.0889 39.9946 53.8028 40.0096 53.5131C40.0239 53.2 39.9235 52.8924 39.7272 52.6481C39.545 52.4224 39.4456 52.1411 39.4456 51.8511C39.4456 51.561 39.545 51.2797 39.7272 51.054C39.9233 50.8109 40.0237 50.5046 40.0096 50.1926C39.9945 49.9024 40.0791 49.6158 40.2495 49.3805C40.4199 49.1451 40.6656 48.9751 40.946 48.8988C41.2411 48.8141 41.4953 48.6248 41.6608 48.3662C41.8197 48.1229 42.057 47.9413 42.3333 47.8516C42.6097 47.7618 42.9084 47.7694 43.1799 47.873C43.4723 47.9839 43.7953 47.9839 44.0877 47.873Z" fill="#E7AD27"/>
<path d="M43.8483 49.6815L44.2414 50.8932C44.2557 50.9369 44.2835 50.9749 44.3207 51.0019C44.358 51.0288 44.4028 51.0433 44.4487 51.0433H45.7211C45.7668 51.043 45.8113 51.0573 45.8483 51.0841C45.8853 51.1109 45.9127 51.1487 45.9267 51.1922C45.9406 51.2356 45.9404 51.2824 45.9259 51.3257C45.9114 51.369 45.8835 51.4065 45.8462 51.4329L44.8062 52.1835C44.7694 52.21 44.7421 52.2474 44.7279 52.2904C44.7138 52.3335 44.7137 52.3798 44.7275 52.4229L45.1207 53.6346C45.1354 53.6777 45.1361 53.7244 45.1225 53.7679C45.109 53.8114 45.0819 53.8494 45.0453 53.8765C45.0086 53.9036 44.9643 53.9183 44.9187 53.9185C44.8732 53.9187 44.8287 53.9044 44.7919 53.8776L43.7589 53.1271C43.7224 53.1009 43.6787 53.0868 43.6338 53.0868C43.5889 53.0868 43.5452 53.1009 43.5087 53.1271L42.4758 53.8776C42.4389 53.9044 42.3944 53.9187 42.3489 53.9185C42.3033 53.9183 42.259 53.9036 42.2224 53.8765C42.1857 53.8494 42.1587 53.8114 42.1451 53.7679C42.1315 53.7244 42.1322 53.6777 42.1469 53.6346L42.5401 52.4229C42.554 52.3798 42.5538 52.3335 42.5397 52.2904C42.5256 52.2474 42.4982 52.21 42.4615 52.1835L41.4321 51.4365C41.3948 51.4101 41.3669 51.3726 41.3525 51.3293C41.338 51.286 41.3377 51.2392 41.3517 51.1958C41.3656 51.1523 41.3931 51.1144 41.43 51.0876C41.467 51.0609 41.5115 51.0466 41.5572 51.0469H42.8296C42.8756 51.0469 42.9204 51.0324 42.9576 51.0054C42.9948 50.9785 43.0226 50.9404 43.0369 50.8968L43.4301 49.6851C43.4405 49.6376 43.4667 49.5951 43.5044 49.5644C43.5421 49.5338 43.5891 49.5169 43.6377 49.5165C43.6863 49.5161 43.7336 49.5322 43.7719 49.5622C43.8101 49.5921 43.8371 49.6342 43.8483 49.6815Z" fill="white"/>
<path d="M50.6965 33.1329H36.5712C36.2495 33.132 35.9413 33.0035 35.7142 32.7757C35.4871 32.5479 35.3595 32.2394 35.3595 31.9177C35.3595 31.5963 35.4872 31.2881 35.7144 31.0609C35.9416 30.8337 36.2498 30.706 36.5712 30.706H50.6965C51.0178 30.706 51.326 30.8337 51.5532 31.0609C51.7805 31.2881 51.9081 31.5963 51.9081 31.9177C51.9081 32.2394 51.7806 32.5479 51.5534 32.7757C51.3263 33.0035 51.0181 33.132 50.6965 33.1329Z" fill="#EC2412"/>
<path d="M33.5188 56.0186H23.2858C22.9642 56.0186 22.6556 55.891 22.4278 55.6639C22.2 55.4368 22.0716 55.1286 22.0706 54.8069C22.0706 54.4846 22.1987 54.1755 22.4266 53.9476C22.6545 53.7197 22.9635 53.5917 23.2858 53.5917H33.5188C33.8405 53.5926 34.1487 53.7211 34.3758 53.9489C34.6029 54.1767 34.7305 54.4852 34.7305 54.8069C34.7305 55.1283 34.6028 55.4364 34.3756 55.6637C34.1484 55.8909 33.8402 56.0186 33.5188 56.0186Z" fill="#BCBEC0"/>
<path d="M63.9818 56.0186H53.7488C53.4275 56.0186 53.1193 55.8909 52.8921 55.6637C52.6648 55.4364 52.5372 55.1283 52.5372 54.8069C52.5372 54.4852 52.6647 54.1767 52.8918 53.9489C53.119 53.7211 53.4271 53.5926 53.7488 53.5917H63.9818C64.3041 53.5917 64.6132 53.7197 64.8411 53.9476C65.069 54.1755 65.197 54.4846 65.197 54.8069C65.1961 55.1286 65.0676 55.4368 64.8398 55.6639C64.612 55.891 64.3035 56.0186 63.9818 56.0186Z" fill="#BCBEC0"/>
<path d="M63.9818 39.495H23.2858C22.9635 39.495 22.6545 39.367 22.4266 39.1391C22.1987 38.9112 22.0706 38.6021 22.0706 38.2798C22.0706 37.9575 22.1987 37.6484 22.4266 37.4205C22.6545 37.1926 22.9635 37.0645 23.2858 37.0645H63.9818C64.3041 37.0645 64.6132 37.1926 64.8411 37.4205C65.069 37.6484 65.197 37.9575 65.197 38.2798C65.197 38.6021 65.069 38.9112 64.8411 39.1391C64.6132 39.367 64.3041 39.495 63.9818 39.495Z" fill="#BCBEC0"/>
<path d="M63.9818 44.3488H23.2858C22.9635 44.3488 22.6545 44.2208 22.4266 43.9929C22.1987 43.765 22.0706 43.4559 22.0706 43.1336C22.0716 42.8119 22.2 42.5037 22.4278 42.2766C22.6556 42.0494 22.9642 41.9219 23.2858 41.9219H63.9818C64.3035 41.9219 64.612 42.0494 64.8398 42.2766C65.0676 42.5037 65.1961 42.8119 65.197 43.1336C65.197 43.4559 65.069 43.765 64.8411 43.9929C64.6132 44.2208 64.3041 44.3488 63.9818 44.3488Z" fill="#BCBEC0"/>
<path d="M68.8213 23.3539H18.4464C18.017 23.3539 17.6051 23.5245 17.3015 23.8281C16.9978 24.1318 16.8273 24.5436 16.8273 24.973V60.3791C16.8273 60.8085 16.9978 61.2204 17.3015 61.524C17.6051 61.8276 18.017 61.9982 18.4464 61.9982H68.8213C69.2507 61.9982 69.6625 61.8276 69.9662 61.524C70.2698 61.2204 70.4404 60.8085 70.4404 60.3791V24.973C70.4404 24.5436 70.2698 24.1318 69.9662 23.8281C69.6625 23.5245 69.2507 23.3539 68.8213 23.3539ZM69.436 42.962L68.1136 44.2845V56.8514C68.0291 56.8459 67.9443 56.8459 67.8598 56.8514C67.1754 56.8514 66.519 57.1232 66.0351 57.6072C65.5511 58.0912 65.2792 58.7475 65.2792 59.4319C65.2792 59.4927 65.2792 59.557 65.2792 59.6178H45.2422L43.9198 60.9403C43.8822 60.9779 43.8377 61.0077 43.7886 61.0281C43.7395 61.0484 43.6869 61.0589 43.6338 61.0589C43.5807 61.0589 43.5281 61.0484 43.479 61.0281C43.43 61.0077 43.3854 60.9779 43.3479 60.9403L42.0254 59.6178H21.9777C21.9777 59.557 21.9777 59.4927 21.9777 59.4319C21.9805 59.0922 21.9162 58.7552 21.7885 58.4403C21.6607 58.1254 21.472 57.8389 21.2333 57.5971C20.9945 57.3554 20.7103 57.1631 20.3971 57.0315C20.0838 56.8998 19.7476 56.8313 19.4078 56.8299C19.3233 56.8245 19.2386 56.8245 19.1541 56.8299V44.2845L17.8316 42.962C17.7936 42.9247 17.7633 42.8802 17.7427 42.8311C17.7221 42.782 17.7115 42.7293 17.7115 42.6761C17.7115 42.6228 17.7221 42.5701 17.7427 42.521C17.7633 42.4719 17.7936 42.4274 17.8316 42.3901L19.1541 41.0677V28.5007C19.2386 28.5062 19.3233 28.5062 19.4078 28.5007C19.7467 28.5007 20.0823 28.434 20.3954 28.3043C20.7085 28.1746 20.9929 27.9845 21.2326 27.7449C21.4722 27.5053 21.6623 27.2208 21.792 26.9077C21.9217 26.5946 21.9884 26.2591 21.9884 25.9202C21.9884 25.8594 21.9884 25.7951 21.9884 25.7343H42.0254L43.3479 24.4119C43.3854 24.3742 43.43 24.3444 43.479 24.324C43.5281 24.3037 43.5807 24.2932 43.6338 24.2932C43.6869 24.2932 43.7395 24.3037 43.7886 24.324C43.8377 24.3444 43.8822 24.3742 43.9198 24.4119L45.2422 25.7343H65.2935C65.2935 25.7951 65.2935 25.8594 65.2935 25.9202C65.2935 26.6046 65.5654 27.261 66.0494 27.7449C66.5333 28.2289 67.1897 28.5007 67.8741 28.5007C67.9586 28.5062 68.0434 28.5062 68.1279 28.5007V41.0677L69.4503 42.3901C69.4875 42.4283 69.5166 42.4736 69.536 42.5232C69.5554 42.5728 69.5647 42.6258 69.5634 42.6791C69.5621 42.7323 69.5501 42.7848 69.5282 42.8334C69.5064 42.882 69.475 42.9257 69.436 42.962Z" fill="#F7CB15"/>
<path d="M53.1841 53.0163C52.8253 53.0293 52.4688 52.954 52.146 52.7969C51.8231 52.6399 51.5438 52.4059 51.3327 52.1156C51.277 52.0397 51.2369 51.9537 51.2145 51.8624C51.1921 51.7711 51.188 51.6763 51.2022 51.5833C51.2165 51.4904 51.2489 51.4012 51.2977 51.3208C51.3464 51.2404 51.4105 51.1704 51.4863 51.1148C51.5622 51.0592 51.6482 51.019 51.7395 50.9966C51.8308 50.9743 51.9256 50.9701 52.0186 50.9843C52.1115 50.9986 52.2007 51.0311 52.2811 51.0798C52.3615 51.1286 52.4315 51.1927 52.4871 51.2685C52.7373 51.6259 53.177 51.6259 53.6166 51.5294C53.3175 51.0393 53.1661 50.4735 53.1805 49.8995C53.1805 48.6986 53.7524 47.1367 54.9283 46.5505C55.2116 46.4075 55.5251 46.3348 55.8424 46.3385C56.1596 46.3423 56.4714 46.4223 56.7512 46.572C57.2052 46.8481 57.5316 47.2927 57.659 47.8086C57.8555 48.6067 57.7683 49.4482 57.4124 50.1891L57.4731 50.1283C57.9771 49.5993 58.5132 49.0346 59.0529 48.4949L59.1959 48.3448C59.607 47.9159 60.2181 47.2725 60.983 47.2725C61.177 47.2797 61.367 47.3292 61.5399 47.4175C61.7128 47.5057 61.8643 47.6307 61.9838 47.7836C62.2675 48.1433 62.4167 48.5909 62.4056 49.0489C62.4104 49.4899 62.3514 49.9293 62.2304 50.3535C62.427 50.1497 62.6236 49.9174 62.8416 49.6386C63.2241 49.1558 63.4404 48.5624 63.4585 47.9468C63.4765 47.3311 63.2953 46.726 62.9417 46.2217C62.884 46.1451 62.8423 46.0578 62.8191 45.9648C62.7959 45.8718 62.7916 45.7751 62.8065 45.6804C62.8214 45.5857 62.8552 45.495 62.9058 45.4137C62.9565 45.3323 63.023 45.262 63.1014 45.2068C63.1798 45.1517 63.2684 45.1129 63.3621 45.0927C63.4558 45.0725 63.5526 45.0714 63.6468 45.0894C63.7409 45.1074 63.8305 45.1441 63.9101 45.1974C63.9898 45.2507 64.0579 45.3195 64.1105 45.3996C64.6413 46.1558 64.9138 47.0631 64.8874 47.9866C64.861 48.9101 64.5371 49.8004 63.9639 50.525C63.5573 51.0613 63.0908 51.5493 62.5735 51.9797C62.3894 52.1409 62.174 52.2626 61.9409 52.3372C61.7472 52.3963 61.5411 52.4016 61.3446 52.3525C61.1482 52.3034 60.9688 52.2017 60.8258 52.0584C60.2753 51.4972 60.5791 50.7395 60.7221 50.3785C60.7471 50.3177 60.7686 50.2641 60.7829 50.2176C60.9083 49.8529 60.9747 49.4704 60.9794 49.0846C60.9847 48.9607 60.9576 48.8375 60.9008 48.7272C60.6516 48.8958 60.4246 49.0951 60.2253 49.3205L60.0573 49.4992C59.5283 50.0282 58.985 50.5715 58.5025 51.104C57.9918 51.6915 57.3587 52.16 56.6475 52.4765C56.1115 52.6886 55.5197 52.7138 54.9676 52.548C54.4157 52.8358 53.8062 52.9958 53.1841 53.0163ZM55.8397 47.7657C55.7438 47.7657 55.6494 47.789 55.5645 47.8337C54.9891 48.1196 54.6209 49.1382 54.6102 49.921C54.5951 50.2589 54.696 50.5919 54.8961 50.8646L54.939 50.9146C55.3911 50.6105 55.7676 50.2071 56.0399 49.7351C56.3075 49.2651 56.394 48.7133 56.2829 48.1839C56.2463 48.039 56.1588 47.9121 56.0363 47.8265C55.9776 47.7887 55.9096 47.7677 55.8397 47.7657Z" fill="#EC2412"/>
<path d="M25.0336 52.9698C24.5055 52.9813 23.9882 52.8194 23.5609 52.5089C23.1336 52.1984 22.8198 51.7564 22.6675 51.2506C22.3387 49.9281 23.3824 48.6807 24.5225 48.284C25.2236 48.0648 25.9649 48.0049 26.6921 48.1089C26.5767 47.825 26.4004 47.57 26.1756 47.3619C25.9507 47.1537 25.6829 46.9975 25.3911 46.9043C25.0427 46.8151 24.6759 46.8295 24.3356 46.9457C23.9953 47.0619 23.6963 47.2748 23.4753 47.5584C23.3592 47.7013 23.1924 47.7939 23.0098 47.8169C22.8271 47.8398 22.6426 47.7915 22.4948 47.6818C22.3469 47.5722 22.247 47.4097 22.2159 47.2283C22.1849 47.0468 22.225 46.8604 22.328 46.7078C22.7217 46.189 23.2613 45.7997 23.8777 45.5895C24.4941 45.3794 25.1592 45.3581 25.7878 45.5283C26.321 45.6903 26.8081 45.9766 27.2089 46.3638C27.6097 46.7509 27.9128 47.2278 28.0932 47.755C28.1602 47.9447 28.2116 48.1395 28.2468 48.3376L31.696 48.8952C32.1109 48.9908 32.5401 49.0078 32.9612 48.9452C33.0772 48.9258 33.1861 48.8768 33.2775 48.8029C33.369 48.729 33.4398 48.6327 33.4831 48.5235C33.511 48.3339 33.6132 48.1632 33.767 48.0489C33.9208 47.9346 34.1138 47.8861 34.3033 47.9141C34.4929 47.942 34.6636 48.0442 34.7779 48.198C34.8922 48.3518 34.9407 48.5448 34.9127 48.7343C34.832 49.1287 34.6372 49.4907 34.3526 49.7754C34.0679 50.0601 33.7059 50.2548 33.3115 50.3356C32.7069 50.4493 32.0853 50.4384 31.4851 50.3034L28.2683 49.7852C28.2029 50.1556 28.09 50.516 27.9323 50.8574C27.7253 51.3603 27.4036 51.8077 26.9927 52.164C26.5818 52.5202 26.0933 52.7754 25.5662 52.909C25.3911 52.9468 25.2127 52.9672 25.0336 52.9698ZM25.9343 49.4956C25.6142 49.4885 25.2951 49.5356 24.9907 49.635C24.4475 49.8245 23.9185 50.3928 24.0543 50.9039C24.1489 51.1339 24.3228 51.3223 24.5444 51.4351C24.7661 51.5479 25.0208 51.5775 25.2624 51.5186C25.5678 51.4289 25.8486 51.2705 26.0834 51.0555C26.3182 50.8406 26.5007 50.5747 26.617 50.2784C26.7194 50.0496 26.7949 49.8097 26.8422 49.5636C26.5414 49.5209 26.2381 49.4982 25.9343 49.4956Z" fill="#EC2412"/>
<path d="M30.4087 52.236C30.2193 52.236 30.0376 52.1607 29.9036 52.0267C29.7697 51.8928 29.6944 51.7111 29.6944 51.5216V51.4323C29.6944 51.2429 29.7697 51.0612 29.9036 50.9272C30.0376 50.7933 30.2193 50.718 30.4087 50.718C30.5982 50.718 30.7799 50.7933 30.9138 50.9272C31.0478 51.0612 31.1231 51.2429 31.1231 51.4323V51.5216C31.1231 51.7111 31.0478 51.8928 30.9138 52.0267C30.7799 52.1607 30.5982 52.236 30.4087 52.236Z" fill="#EC2412"/>
</g>
<defs>
<clipPath id="clip0_3_93">
<rect width="85.3521" height="85.3521" fill="white" transform="translate(0.957764)"/>
</clipPath>
</defs>
</svg>
