<svg width="32" height="23" viewBox="0 0 64 46" fill="none" xmlns="http://www.w3.org/2000/svg">
<path d="M50.6295 17.2257C50.5006 15.8322 50.5992 12.0441 54.2281 6.77647C54.5026 6.37897 54.4528 5.84287 54.1119 5.50207C52.6324 4.02257 51.7164 3.08897 51.0739 2.43567C50.2291 1.57427 49.8434 1.18177 49.2789 0.669969C48.902 0.331168 48.3317 0.325269 47.9508 0.657369C41.6256 6.16127 34.6002 17.5343 35.6168 31.4679C36.2125 39.6495 42.1803 45.588 49.8063 45.588C57.6324 45.588 63.9996 39.2218 63.9996 31.3956C63.9996 23.8458 58.0739 17.6544 50.6295 17.2257ZM49.8063 43.588C43.2574 43.588 38.1295 38.4298 37.611 31.3234C37.611 31.3234 37.611 31.3234 37.611 31.3224C36.4674 15.6515 45.7828 5.47277 48.5973 2.77747C48.8717 3.04797 49.1852 3.36627 49.6471 3.83697C50.2037 4.40337 50.9655 5.17877 52.1178 6.33507C47.7125 13.1222 48.5436 17.9581 48.9078 18.6515C49.0807 18.9806 49.4352 19.2023 49.8063 19.2023C56.5299 19.2023 61.9996 24.672 61.9996 31.3956C61.9996 38.1183 56.5299 43.588 49.8063 43.588Z" fill="#EC2412"/>
<path d="M15.1138 17.2257C14.9839 15.8361 15.0796 12.0509 18.7124 6.77646C18.9859 6.37896 18.937 5.84286 18.5962 5.50206C17.1196 4.02546 16.2046 3.09286 15.563 2.43956C14.7154 1.57626 14.3286 1.18266 13.7642 0.669963C13.3872 0.331163 12.8169 0.326263 12.4361 0.656363C6.11087 6.16026 -0.915535 17.5314 0.0990644 31.4679V31.4689C0.696764 39.6495 6.66546 45.588 14.2915 45.588C22.1177 45.588 28.4849 39.2218 28.4849 31.3956C28.4849 23.8449 22.5591 17.6525 15.1138 17.2257ZM14.2915 43.588C7.74366 43.588 2.61276 38.4298 2.09326 31.3224V31.3234C0.952664 15.6486 10.2681 5.47176 13.0825 2.77746C13.3579 3.04796 13.6724 3.36826 14.1353 3.83996C14.6909 4.40636 15.4517 5.18076 16.6021 6.33506C12.1968 13.1232 13.0279 17.9581 13.3921 18.6505C13.565 18.9796 13.9204 19.2023 14.2915 19.2023C21.0152 19.2023 26.4849 24.672 26.4849 31.3956C26.4849 38.1183 21.0152 43.588 14.2915 43.588Z" fill="#EC2412"/>
</svg>
