<svg width="32" height="23" viewBox="0 0 64 46" fill="none" xmlns="http://www.w3.org/2000/svg">
<path d="M14.1933 0.411652C6.36718 0.411652 0.000976562 6.77785 0.000976562 14.6041C0.000976562 22.1539 5.92578 28.3462 13.3701 28.774C13.499 30.1656 13.4023 33.9537 9.77238 39.2232C9.49798 39.6207 9.54778 40.1567 9.88858 40.4976C11.374 41.9829 12.292 42.9185 12.9345 43.5728C13.7754 44.4283 14.1592 44.8189 14.7207 45.3287C14.9111 45.5014 15.1513 45.5883 15.3926 45.5883C15.6269 45.5883 15.8603 45.5064 16.0488 45.3433C22.374 39.8394 29.4004 28.4673 28.3838 14.5318C27.7881 6.35015 21.8203 0.411652 14.1933 0.411652ZM15.4023 43.2222C15.1299 42.9537 14.8193 42.6372 14.3613 42.1713C13.8047 41.604 13.041 40.8266 11.8828 39.6646C16.2881 32.8764 15.456 28.0416 15.0918 27.3482C14.9189 27.0191 14.5644 26.7974 14.1933 26.7974C7.47068 26.7974 2.00098 21.3277 2.00098 14.6041C2.00098 7.88135 7.47068 2.41165 14.1933 2.41165C20.7422 2.41165 25.8711 7.56985 26.3896 14.6763C27.5322 30.3502 18.2168 40.5269 15.4023 43.2222Z" fill="#EC2412"/>
<path d="M63.9004 14.5318V14.5308C63.3027 6.35015 57.334 0.411652 49.709 0.411652C41.8828 0.411652 35.5156 6.77785 35.5156 14.6041C35.5156 22.1539 41.4414 28.3462 48.8867 28.774C49.0156 30.1646 48.9179 33.9507 45.2871 39.2232C45.0127 39.6207 45.0625 40.1567 45.4033 40.4976C46.8828 41.9771 47.7988 42.9106 48.4414 43.5639C49.2861 44.4253 49.6719 44.8178 50.2363 45.3296C50.4267 45.5014 50.6679 45.5883 50.9082 45.5883C51.1426 45.5883 51.376 45.5064 51.5644 45.3423C57.8896 39.8384 64.916 28.4664 63.9004 14.5318ZM50.9179 43.2222C50.6435 42.9517 50.3301 42.6334 49.8681 42.1627C49.3115 41.5961 48.5508 40.8209 47.3974 39.6646C51.8027 32.8755 50.9717 28.0416 50.6084 27.3482C50.4355 27.0201 50.0801 26.7974 49.709 26.7974C42.9853 26.7974 37.5156 21.3277 37.5156 14.6041C37.5156 7.88135 42.9853 2.41165 49.709 2.41165C56.2568 2.41165 61.3867 7.56985 61.9062 14.6773V14.6763C63.0478 30.3482 53.7324 40.5269 50.9179 43.2222Z" fill="#EC2412"/>
</svg>
